<?xml version="1.0" encoding="utf-8" standalone="no"?>
<!DOCTYPE svg PUBLIC "-//W3C//DTD SVG 1.1//EN"
  "http://www.w3.org/Graphics/SVG/1.1/DTD/svg11.dtd">
<svg xmlns:xlink="http://www.w3.org/1999/xlink" width="360pt" height="216pt" viewBox="0 0 360 216" xmlns="http://www.w3.org/2000/svg" version="1.1">
 <metadata>
  <rdf:RDF xmlns:dc="http://purl.org/dc/elements/1.1/" xmlns:cc="http://creativecommons.org/ns#" xmlns:rdf="http://www.w3.org/1999/02/22-rdf-syntax-ns#">
   <cc:Work>
    <dc:type rdf:resource="http://purl.org/dc/dcmitype/StillImage"/>
    <dc:date>2022-09-10T20:41:56.887669</dc:date>
    <dc:format>image/svg+xml</dc:format>
    <dc:creator>
     <cc:Agent>
      <dc:title>Matplotlib v3.5.2, https://matplotlib.org/</dc:title>
     </cc:Agent>
    </dc:creator>
   </cc:Work>
  </rdf:RDF>
 </metadata>
 <defs>
  <style type="text/css">*{stroke-linejoin: round; stroke-linecap: butt}</style>
 </defs>
 <g id="figure_1">
  <g id="patch_1">
   <path d="M 0 216 
L 360 216 
L 360 0 
L 0 0 
z
" style="fill: #ffffff"/>
  </g>
  <g id="axes_1">
   <g id="patch_2">
    <path d="M 28.38 187.4 
L 349.2 187.4 
L 349.2 10.8 
L 28.38 10.8 
z
" style="fill: #ffffff"/>
   </g>
   <g id="matplotlib.axis_1">
    <g id="xtick_1">
     <g id="line2d_1">
      <defs>
       <path id="m0dcf5e5f20" d="M 0 0 
L 0 3.5 
" style="stroke: #000000; stroke-width: 0.8"/>
      </defs>
      <g>
       <use xlink:href="#m0dcf5e5f20" x="67.267273" y="187.4" style="stroke: #000000; stroke-width: 0.8"/>
      </g>
     </g>
     <g id="text_1">
      <!-- $a$ -->
      <g transform="translate(64.167273 201.998437)scale(0.1 -0.1)">
       <defs>
        <path id="DejaVuSans-Oblique-61" d="M 3438 1997 
L 3047 0 
L 2472 0 
L 2578 531 
Q 2325 219 2001 64 
Q 1678 -91 1281 -91 
Q 834 -91 548 182 
Q 263 456 263 884 
Q 263 1497 752 1853 
Q 1241 2209 2100 2209 
L 2900 2209 
L 2931 2363 
Q 2938 2388 2941 2417 
Q 2944 2447 2944 2509 
Q 2944 2788 2717 2942 
Q 2491 3097 2081 3097 
Q 1800 3097 1504 3025 
Q 1209 2953 897 2809 
L 997 3341 
Q 1322 3463 1633 3523 
Q 1944 3584 2234 3584 
Q 2853 3584 3176 3315 
Q 3500 3047 3500 2534 
Q 3500 2431 3484 2292 
Q 3469 2153 3438 1997 
z
M 2816 1759 
L 2241 1759 
Q 1534 1759 1195 1570 
Q 856 1381 856 984 
Q 856 709 1029 553 
Q 1203 397 1509 397 
Q 1978 397 2328 733 
Q 2678 1069 2791 1631 
L 2816 1759 
z
" transform="scale(0.015625)"/>
       </defs>
       <use xlink:href="#DejaVuSans-Oblique-61"/>
      </g>
     </g>
    </g>
    <g id="xtick_2">
     <g id="line2d_2">
      <g>
       <use xlink:href="#m0dcf5e5f20" x="188.79" y="187.4" style="stroke: #000000; stroke-width: 0.8"/>
      </g>
     </g>
     <g id="text_2">
      <!-- $\mu$ -->
      <g transform="translate(185.59 201.978125)scale(0.1 -0.1)">
       <defs>
        <path id="DejaVuSans-Oblique-3bc" d="M -84 -1331 
L 856 3500 
L 1434 3500 
L 1009 1322 
Q 997 1256 987 1175 
Q 978 1094 978 1013 
Q 978 722 1161 565 
Q 1344 409 1684 409 
Q 2147 409 2431 671 
Q 2716 934 2816 1459 
L 3213 3500 
L 3788 3500 
L 3266 809 
Q 3253 750 3248 706 
Q 3244 663 3244 628 
Q 3244 531 3283 486 
Q 3322 441 3406 441 
Q 3438 441 3492 456 
Q 3547 472 3647 513 
L 3559 50 
Q 3422 -19 3297 -55 
Q 3172 -91 3053 -91 
Q 2847 -91 2730 40 
Q 2613 172 2613 403 
Q 2438 153 2195 31 
Q 1953 -91 1625 -91 
Q 1334 -91 1117 43 
Q 900 178 831 397 
L 494 -1331 
L -84 -1331 
z
" transform="scale(0.015625)"/>
       </defs>
       <use xlink:href="#DejaVuSans-Oblique-3bc" transform="translate(0 0.3125)"/>
      </g>
     </g>
    </g>
    <g id="xtick_3">
     <g id="line2d_3">
      <g>
       <use xlink:href="#m0dcf5e5f20" x="310.312727" y="187.4" style="stroke: #000000; stroke-width: 0.8"/>
      </g>
     </g>
     <g id="text_3">
      <!-- $b$ -->
      <g transform="translate(307.112727 201.998437)scale(0.1 -0.1)">
       <defs>
        <path id="DejaVuSans-Oblique-62" d="M 3169 2138 
Q 3169 2591 2961 2847 
Q 2753 3103 2388 3103 
Q 2122 3103 1889 2973 
Q 1656 2844 1484 2597 
Q 1303 2338 1198 1995 
Q 1094 1653 1094 1313 
Q 1094 881 1298 636 
Q 1503 391 1863 391 
Q 2134 391 2365 517 
Q 2597 644 2772 891 
Q 2950 1147 3059 1487 
Q 3169 1828 3169 2138 
z
M 1381 2969 
Q 1594 3256 1914 3420 
Q 2234 3584 2584 3584 
Q 3122 3584 3439 3221 
Q 3756 2859 3756 2241 
Q 3756 1734 3570 1259 
Q 3384 784 3041 416 
Q 2816 172 2522 40 
Q 2228 -91 1906 -91 
Q 1566 -91 1316 65 
Q 1066 222 909 531 
L 806 0 
L 231 0 
L 1178 4863 
L 1753 4863 
L 1381 2969 
z
" transform="scale(0.015625)"/>
       </defs>
       <use xlink:href="#DejaVuSans-Oblique-62" transform="translate(0 0.015625)"/>
      </g>
     </g>
    </g>
   </g>
   <g id="matplotlib.axis_2">
    <g id="text_4">
     <!-- PDF -->
     <g transform="translate(18.800313 108.840625)rotate(-90)scale(0.1 -0.1)">
      <defs>
       <path id="DejaVuSans-50" d="M 1259 4147 
L 1259 2394 
L 2053 2394 
Q 2494 2394 2734 2622 
Q 2975 2850 2975 3272 
Q 2975 3691 2734 3919 
Q 2494 4147 2053 4147 
L 1259 4147 
z
M 628 4666 
L 2053 4666 
Q 2838 4666 3239 4311 
Q 3641 3956 3641 3272 
Q 3641 2581 3239 2228 
Q 2838 1875 2053 1875 
L 1259 1875 
L 1259 0 
L 628 0 
L 628 4666 
z
" transform="scale(0.015625)"/>
       <path id="DejaVuSans-44" d="M 1259 4147 
L 1259 519 
L 2022 519 
Q 2988 519 3436 956 
Q 3884 1394 3884 2338 
Q 3884 3275 3436 3711 
Q 2988 4147 2022 4147 
L 1259 4147 
z
M 628 4666 
L 1925 4666 
Q 3281 4666 3915 4102 
Q 4550 3538 4550 2338 
Q 4550 1131 3912 565 
Q 3275 0 1925 0 
L 628 0 
L 628 4666 
z
" transform="scale(0.015625)"/>
       <path id="DejaVuSans-46" d="M 628 4666 
L 3309 4666 
L 3309 4134 
L 1259 4134 
L 1259 2759 
L 3109 2759 
L 3109 2228 
L 1259 2228 
L 1259 0 
L 628 0 
L 628 4666 
z
" transform="scale(0.015625)"/>
      </defs>
      <use xlink:href="#DejaVuSans-50"/>
      <use xlink:href="#DejaVuSans-44" x="60.302734"/>
      <use xlink:href="#DejaVuSans-46" x="137.304688"/>
     </g>
    </g>
   </g>
   <g id="line2d_4">
    <path d="M 42.962727 179.372727 
L 45.908733 178.262845 
L 48.854738 177.04434 
L 51.800744 175.7103 
L 54.746749 174.25386 
L 57.692755 172.668271 
L 60.63876 170.946984 
L 63.584766 169.083735 
L 66.530771 167.072639 
L 69.476777 164.908287 
L 72.422782 162.585853 
L 75.368788 160.101193 
L 78.314793 157.450959 
L 81.260799 154.632709 
L 84.206804 151.645008 
L 87.15281 148.487542 
L 90.098815 145.161217 
L 93.044821 141.668253 
L 95.990826 138.012271 
L 98.936832 134.198376 
L 101.882837 130.233217 
L 104.828843 126.125042 
L 107.774848 121.883734 
L 110.720854 117.520831 
L 113.66686 113.049523 
L 116.612865 108.484638 
L 119.558871 103.842596 
L 122.504876 99.141352 
L 125.450882 94.400307 
L 128.396887 89.640203 
L 131.342893 84.882996 
L 134.288898 80.151701 
L 137.234904 75.47023 
L 140.180909 70.863194 
L 143.126915 66.355704 
L 146.07292 61.97315 
L 149.018926 57.740964 
L 151.964931 53.684386 
L 154.910937 49.828209 
L 157.856942 46.196536 
L 160.802948 42.812525 
L 163.748953 39.698148 
L 166.694959 36.873951 
L 169.640964 34.358833 
L 172.58697 32.16983 
L 175.532975 30.321927 
L 178.478981 28.827886 
L 181.424986 27.6981 
L 184.370992 26.94047 
L 187.316997 26.560317 
L 190.263003 26.560317 
L 193.209008 26.94047 
L 196.155014 27.6981 
L 199.101019 28.827886 
L 202.047025 30.321927 
L 204.99303 32.16983 
L 207.939036 34.358833 
L 210.885041 36.873951 
L 213.831047 39.698148 
L 216.777052 42.812525 
L 219.723058 46.196536 
L 222.669063 49.828209 
L 225.615069 53.684386 
L 228.561074 57.740964 
L 231.50708 61.97315 
L 234.453085 66.355704 
L 237.399091 70.863194 
L 240.345096 75.47023 
L 243.291102 80.151701 
L 246.237107 84.882996 
L 249.183113 89.640203 
L 252.129118 94.400307 
L 255.075124 99.141352 
L 258.021129 103.842596 
L 260.967135 108.484638 
L 263.91314 113.049523 
L 266.859146 117.520831 
L 269.805152 121.883734 
L 272.751157 126.125042 
L 275.697163 130.233217 
L 278.643168 134.198376 
L 281.589174 138.012271 
L 284.535179 141.668253 
L 287.481185 145.161217 
L 290.42719 148.487542 
L 293.373196 151.645008 
L 296.319201 154.632709 
L 299.265207 157.450959 
L 302.211212 160.101193 
L 305.157218 162.585853 
L 308.103223 164.908287 
L 311.049229 167.072639 
L 313.995234 169.083735 
L 316.94124 170.946984 
L 319.887245 172.668271 
L 322.833251 174.25386 
L 325.779256 175.7103 
L 328.725262 177.04434 
L 331.671267 178.262845 
L 334.617273 179.372727 
" clip-path="url(#p2870bef9e7)" style="fill: none; stroke-dasharray: 5.55,2.4; stroke-dashoffset: 0; stroke: #000000; stroke-width: 1.5"/>
   </g>
   <g id="line2d_5">
    <path d="M 67.267273 165.501318 
L 69.722277 163.589042 
L 72.177282 161.561469 
L 74.632287 159.416085 
L 77.087291 157.150772 
L 79.542296 154.763857 
L 81.9973 152.254152 
L 84.452305 149.621008 
L 86.907309 146.864348 
L 89.362314 143.984721 
L 91.817319 140.983332 
L 94.272323 137.862088 
L 96.727328 134.623626 
L 99.182332 131.271348 
L 101.637337 127.809444 
L 104.092342 124.242913 
L 106.547346 120.577582 
L 109.002351 116.820108 
L 111.457355 112.97799 
L 113.91236 109.059559 
L 116.367365 105.073969 
L 118.822369 101.031175 
L 121.277374 96.941915 
L 123.732378 92.817668 
L 126.187383 88.670613 
L 128.642388 84.513585 
L 131.097392 80.360012 
L 133.552397 76.223854 
L 136.007401 72.119527 
L 138.462406 68.061832 
L 140.91741 64.065861 
L 143.372415 60.146916 
L 145.82742 56.32041 
L 148.282424 52.601769 
L 150.737429 49.00633 
L 153.192433 45.549239 
L 155.647438 42.245342 
L 158.102443 39.109084 
L 160.557447 36.154403 
L 163.012452 33.394625 
L 165.467456 30.842365 
L 167.922461 28.509435 
L 170.377466 26.406748 
L 172.83247 24.544234 
L 175.287475 22.930766 
L 177.742479 21.574085 
L 180.197484 20.480738 
L 182.652489 19.65603 
L 185.107493 19.103976 
L 187.562498 18.827273 
L 190.017502 18.827273 
L 192.472507 19.103976 
L 194.927511 19.65603 
L 197.382516 20.480738 
L 199.837521 21.574085 
L 202.292525 22.930766 
L 204.74753 24.544234 
L 207.202534 26.406748 
L 209.657539 28.509435 
L 212.112544 30.842365 
L 214.567548 33.394625 
L 217.022553 36.154403 
L 219.477557 39.109084 
L 221.932562 42.245342 
L 224.387567 45.549239 
L 226.842571 49.00633 
L 229.297576 52.601769 
L 231.75258 56.32041 
L 234.207585 60.146916 
L 236.66259 64.065861 
L 239.117594 68.061832 
L 241.572599 72.119527 
L 244.027603 76.223854 
L 246.482608 80.360012 
L 248.937612 84.513585 
L 251.392617 88.670613 
L 253.847622 92.817668 
L 256.302626 96.941915 
L 258.757631 101.031175 
L 261.212635 105.073969 
L 263.66764 109.059559 
L 266.122645 112.97799 
L 268.577649 116.820108 
L 271.032654 120.577582 
L 273.487658 124.242913 
L 275.942663 127.809444 
L 278.397668 131.271348 
L 280.852672 134.623626 
L 283.307677 137.862088 
L 285.762681 140.983332 
L 288.217686 143.984721 
L 290.672691 146.864348 
L 293.127695 149.621008 
L 295.5827 152.254152 
L 298.037704 154.763857 
L 300.492709 157.150772 
L 302.947713 159.416085 
L 305.402718 161.561469 
L 307.857723 163.589042 
L 310.312727 165.501318 
" clip-path="url(#p2870bef9e7)" style="fill: none; stroke: #ff0000; stroke-width: 2; stroke-linecap: square"/>
   </g>
   <g id="patch_3">
    <path d="M 28.38 187.4 
L 28.38 10.8 
" style="fill: none; stroke: #000000; stroke-width: 0.8; stroke-linejoin: miter; stroke-linecap: square"/>
   </g>
   <g id="patch_4">
    <path d="M 349.2 187.4 
L 349.2 10.8 
" style="fill: none; stroke: #000000; stroke-width: 0.8; stroke-linejoin: miter; stroke-linecap: square"/>
   </g>
   <g id="patch_5">
    <path d="M 28.38 187.4 
L 349.2 187.4 
" style="fill: none; stroke: #000000; stroke-width: 0.8; stroke-linejoin: miter; stroke-linecap: square"/>
   </g>
   <g id="patch_6">
    <path d="M 28.38 10.8 
L 349.2 10.8 
" style="fill: none; stroke: #000000; stroke-width: 0.8; stroke-linejoin: miter; stroke-linecap: square"/>
   </g>
   <g id="legend_1">
    <g id="patch_7">
     <path d="M 241.8875 48.15625 
L 342.2 48.15625 
Q 344.2 48.15625 344.2 46.15625 
L 344.2 17.8 
Q 344.2 15.8 342.2 15.8 
L 241.8875 15.8 
Q 239.8875 15.8 239.8875 17.8 
L 239.8875 46.15625 
Q 239.8875 48.15625 241.8875 48.15625 
z
" style="fill: #ffffff; opacity: 0.8; stroke: #cccccc; stroke-linejoin: miter"/>
    </g>
    <g id="line2d_6">
     <path d="M 243.8875 23.898438 
L 253.8875 23.898438 
L 263.8875 23.898438 
" style="fill: none; stroke-dasharray: 5.55,2.4; stroke-dashoffset: 0; stroke: #000000; stroke-width: 1.5"/>
    </g>
    <g id="text_5">
     <!-- Normal -->
     <g transform="translate(271.8875 27.398438)scale(0.1 -0.1)">
      <defs>
       <path id="DejaVuSans-4e" d="M 628 4666 
L 1478 4666 
L 3547 763 
L 3547 4666 
L 4159 4666 
L 4159 0 
L 3309 0 
L 1241 3903 
L 1241 0 
L 628 0 
L 628 4666 
z
" transform="scale(0.015625)"/>
       <path id="DejaVuSans-6f" d="M 1959 3097 
Q 1497 3097 1228 2736 
Q 959 2375 959 1747 
Q 959 1119 1226 758 
Q 1494 397 1959 397 
Q 2419 397 2687 759 
Q 2956 1122 2956 1747 
Q 2956 2369 2687 2733 
Q 2419 3097 1959 3097 
z
M 1959 3584 
Q 2709 3584 3137 3096 
Q 3566 2609 3566 1747 
Q 3566 888 3137 398 
Q 2709 -91 1959 -91 
Q 1206 -91 779 398 
Q 353 888 353 1747 
Q 353 2609 779 3096 
Q 1206 3584 1959 3584 
z
" transform="scale(0.015625)"/>
       <path id="DejaVuSans-72" d="M 2631 2963 
Q 2534 3019 2420 3045 
Q 2306 3072 2169 3072 
Q 1681 3072 1420 2755 
Q 1159 2438 1159 1844 
L 1159 0 
L 581 0 
L 581 3500 
L 1159 3500 
L 1159 2956 
Q 1341 3275 1631 3429 
Q 1922 3584 2338 3584 
Q 2397 3584 2469 3576 
Q 2541 3569 2628 3553 
L 2631 2963 
z
" transform="scale(0.015625)"/>
       <path id="DejaVuSans-6d" d="M 3328 2828 
Q 3544 3216 3844 3400 
Q 4144 3584 4550 3584 
Q 5097 3584 5394 3201 
Q 5691 2819 5691 2113 
L 5691 0 
L 5113 0 
L 5113 2094 
Q 5113 2597 4934 2840 
Q 4756 3084 4391 3084 
Q 3944 3084 3684 2787 
Q 3425 2491 3425 1978 
L 3425 0 
L 2847 0 
L 2847 2094 
Q 2847 2600 2669 2842 
Q 2491 3084 2119 3084 
Q 1678 3084 1418 2786 
Q 1159 2488 1159 1978 
L 1159 0 
L 581 0 
L 581 3500 
L 1159 3500 
L 1159 2956 
Q 1356 3278 1631 3431 
Q 1906 3584 2284 3584 
Q 2666 3584 2933 3390 
Q 3200 3197 3328 2828 
z
" transform="scale(0.015625)"/>
       <path id="DejaVuSans-61" d="M 2194 1759 
Q 1497 1759 1228 1600 
Q 959 1441 959 1056 
Q 959 750 1161 570 
Q 1363 391 1709 391 
Q 2188 391 2477 730 
Q 2766 1069 2766 1631 
L 2766 1759 
L 2194 1759 
z
M 3341 1997 
L 3341 0 
L 2766 0 
L 2766 531 
Q 2569 213 2275 61 
Q 1981 -91 1556 -91 
Q 1019 -91 701 211 
Q 384 513 384 1019 
Q 384 1609 779 1909 
Q 1175 2209 1959 2209 
L 2766 2209 
L 2766 2266 
Q 2766 2663 2505 2880 
Q 2244 3097 1772 3097 
Q 1472 3097 1187 3025 
Q 903 2953 641 2809 
L 641 3341 
Q 956 3463 1253 3523 
Q 1550 3584 1831 3584 
Q 2591 3584 2966 3190 
Q 3341 2797 3341 1997 
z
" transform="scale(0.015625)"/>
       <path id="DejaVuSans-6c" d="M 603 4863 
L 1178 4863 
L 1178 0 
L 603 0 
L 603 4863 
z
" transform="scale(0.015625)"/>
      </defs>
      <use xlink:href="#DejaVuSans-4e"/>
      <use xlink:href="#DejaVuSans-6f" x="74.804688"/>
      <use xlink:href="#DejaVuSans-72" x="135.986328"/>
      <use xlink:href="#DejaVuSans-6d" x="175.349609"/>
      <use xlink:href="#DejaVuSans-61" x="272.761719"/>
      <use xlink:href="#DejaVuSans-6c" x="334.041016"/>
     </g>
    </g>
    <g id="line2d_7">
     <path d="M 243.8875 38.576563 
L 253.8875 38.576563 
L 263.8875 38.576563 
" style="fill: none; stroke: #ff0000; stroke-width: 2; stroke-linecap: square"/>
    </g>
    <g id="text_6">
     <!-- Trunc. normal -->
     <g transform="translate(271.8875 42.076563)scale(0.1 -0.1)">
      <defs>
       <path id="DejaVuSans-54" d="M -19 4666 
L 3928 4666 
L 3928 4134 
L 2272 4134 
L 2272 0 
L 1638 0 
L 1638 4134 
L -19 4134 
L -19 4666 
z
" transform="scale(0.015625)"/>
       <path id="DejaVuSans-75" d="M 544 1381 
L 544 3500 
L 1119 3500 
L 1119 1403 
Q 1119 906 1312 657 
Q 1506 409 1894 409 
Q 2359 409 2629 706 
Q 2900 1003 2900 1516 
L 2900 3500 
L 3475 3500 
L 3475 0 
L 2900 0 
L 2900 538 
Q 2691 219 2414 64 
Q 2138 -91 1772 -91 
Q 1169 -91 856 284 
Q 544 659 544 1381 
z
M 1991 3584 
L 1991 3584 
z
" transform="scale(0.015625)"/>
       <path id="DejaVuSans-6e" d="M 3513 2113 
L 3513 0 
L 2938 0 
L 2938 2094 
Q 2938 2591 2744 2837 
Q 2550 3084 2163 3084 
Q 1697 3084 1428 2787 
Q 1159 2491 1159 1978 
L 1159 0 
L 581 0 
L 581 3500 
L 1159 3500 
L 1159 2956 
Q 1366 3272 1645 3428 
Q 1925 3584 2291 3584 
Q 2894 3584 3203 3211 
Q 3513 2838 3513 2113 
z
" transform="scale(0.015625)"/>
       <path id="DejaVuSans-63" d="M 3122 3366 
L 3122 2828 
Q 2878 2963 2633 3030 
Q 2388 3097 2138 3097 
Q 1578 3097 1268 2742 
Q 959 2388 959 1747 
Q 959 1106 1268 751 
Q 1578 397 2138 397 
Q 2388 397 2633 464 
Q 2878 531 3122 666 
L 3122 134 
Q 2881 22 2623 -34 
Q 2366 -91 2075 -91 
Q 1284 -91 818 406 
Q 353 903 353 1747 
Q 353 2603 823 3093 
Q 1294 3584 2113 3584 
Q 2378 3584 2631 3529 
Q 2884 3475 3122 3366 
z
" transform="scale(0.015625)"/>
       <path id="DejaVuSans-2e" d="M 684 794 
L 1344 794 
L 1344 0 
L 684 0 
L 684 794 
z
" transform="scale(0.015625)"/>
       <path id="DejaVuSans-20" transform="scale(0.015625)"/>
      </defs>
      <use xlink:href="#DejaVuSans-54"/>
      <use xlink:href="#DejaVuSans-72" x="46.333984"/>
      <use xlink:href="#DejaVuSans-75" x="87.447266"/>
      <use xlink:href="#DejaVuSans-6e" x="150.826172"/>
      <use xlink:href="#DejaVuSans-63" x="214.205078"/>
      <use xlink:href="#DejaVuSans-2e" x="269.185547"/>
      <use xlink:href="#DejaVuSans-20" x="300.972656"/>
      <use xlink:href="#DejaVuSans-6e" x="332.759766"/>
      <use xlink:href="#DejaVuSans-6f" x="396.138672"/>
      <use xlink:href="#DejaVuSans-72" x="457.320312"/>
      <use xlink:href="#DejaVuSans-6d" x="496.683594"/>
      <use xlink:href="#DejaVuSans-61" x="594.095703"/>
      <use xlink:href="#DejaVuSans-6c" x="655.375"/>
     </g>
    </g>
   </g>
  </g>
 </g>
 <defs>
  <clipPath id="p2870bef9e7">
   <rect x="28.38" y="10.8" width="320.82" height="176.6"/>
  </clipPath>
 </defs>
</svg>
