<?xml version="1.0" encoding="utf-8" standalone="no"?>
<!DOCTYPE svg PUBLIC "-//W3C//DTD SVG 1.1//EN"
  "http://www.w3.org/Graphics/SVG/1.1/DTD/svg11.dtd">
<svg xmlns:xlink="http://www.w3.org/1999/xlink" width="504pt" height="324pt" viewBox="0 0 504 324" xmlns="http://www.w3.org/2000/svg" version="1.1">
 <metadata>
  <rdf:RDF xmlns:dc="http://purl.org/dc/elements/1.1/" xmlns:cc="http://creativecommons.org/ns#" xmlns:rdf="http://www.w3.org/1999/02/22-rdf-syntax-ns#">
   <cc:Work>
    <dc:type rdf:resource="http://purl.org/dc/dcmitype/StillImage"/>
    <dc:date>2022-09-10T20:41:56.771442</dc:date>
    <dc:format>image/svg+xml</dc:format>
    <dc:creator>
     <cc:Agent>
      <dc:title>Matplotlib v3.5.2, https://matplotlib.org/</dc:title>
     </cc:Agent>
    </dc:creator>
   </cc:Work>
  </rdf:RDF>
 </metadata>
 <defs>
  <style type="text/css">*{stroke-linejoin: round; stroke-linecap: butt}</style>
 </defs>
 <g id="figure_1">
  <g id="patch_1">
   <path d="M 0 324 
L 504 324 
L 504 0 
L 0 0 
z
" style="fill: #ffffff"/>
  </g>
  <g id="axes_1">
   <g id="patch_2">
    <path d="M 63 288.36 
L 453.6 288.36 
L 453.6 38.88 
L 63 38.88 
z
" style="fill: #ffffff"/>
   </g>
   <g id="line2d_1">
    <path d="M 80.754545 277.965 
L 80.754545 70.065 
L 435.845455 70.065 
L 435.845455 277.965 
L 80.754545 277.965 
" clip-path="url(#p5612a28c65)" style="fill: none; stroke-dasharray: 1.5,2.475; stroke-dashoffset: 0; stroke: #0000ff; stroke-width: 1.5"/>
   </g>
   <g id="PathCollection_1">
    <defs>
     <path id="me911f3452c" d="M 0 2.236068 
C 0.593012 2.236068 1.161816 2.000462 1.581139 1.581139 
C 2.000462 1.161816 2.236068 0.593012 2.236068 0 
C 2.236068 -0.593012 2.000462 -1.161816 1.581139 -1.581139 
C 1.161816 -2.000462 0.593012 -2.236068 0 -2.236068 
C -0.593012 -2.236068 -1.161816 -2.000462 -1.581139 -1.581139 
C -2.000462 -1.161816 -2.236068 -0.593012 -2.236068 0 
C -2.236068 0.593012 -2.000462 1.161816 -1.581139 1.581139 
C -1.161816 2.000462 -0.593012 2.236068 0 2.236068 
z
" style="stroke: #4682b4"/>
    </defs>
    <g clip-path="url(#p5612a28c65)">
     <use xlink:href="#me911f3452c" x="92.189206" y="150.304903" style="fill: #4682b4; stroke: #4682b4"/>
     <use xlink:href="#me911f3452c" x="418.602701" y="233.054984" style="fill: #4682b4; stroke: #4682b4"/>
     <use xlink:href="#me911f3452c" x="352.601941" y="217.022655" style="fill: #4682b4; stroke: #4682b4"/>
     <use xlink:href="#me911f3452c" x="386.689955" y="250.41359" style="fill: #4682b4; stroke: #4682b4"/>
     <use xlink:href="#me911f3452c" x="389.317056" y="199.249354" style="fill: #4682b4; stroke: #4682b4"/>
     <use xlink:href="#me911f3452c" x="169.205067" y="223.032163" style="fill: #4682b4; stroke: #4682b4"/>
     <use xlink:href="#me911f3452c" x="186.555523" y="221.212663" style="fill: #4682b4; stroke: #4682b4"/>
     <use xlink:href="#me911f3452c" x="335.209883" y="190.248787" style="fill: #4682b4; stroke: #4682b4"/>
     <use xlink:href="#me911f3452c" x="334.187855" y="267.46298" style="fill: #4682b4; stroke: #4682b4"/>
     <use xlink:href="#me911f3452c" x="293.234123" y="249.159685" style="fill: #4682b4; stroke: #4682b4"/>
     <use xlink:href="#me911f3452c" x="336.398619" y="168.969824" style="fill: #4682b4; stroke: #4682b4"/>
     <use xlink:href="#me911f3452c" x="215.491483" y="228.074722" style="fill: #4682b4; stroke: #4682b4"/>
     <use xlink:href="#me911f3452c" x="405.106286" y="137.096983" style="fill: #4682b4; stroke: #4682b4"/>
     <use xlink:href="#me911f3452c" x="109.762636" y="217.945089" style="fill: #4682b4; stroke: #4682b4"/>
     <use xlink:href="#me911f3452c" x="137.729257" y="210.755732" style="fill: #4682b4; stroke: #4682b4"/>
     <use xlink:href="#me911f3452c" x="375.789271" y="107.06401" style="fill: #4682b4; stroke: #4682b4"/>
     <use xlink:href="#me911f3452c" x="179.344942" y="255.717443" style="fill: #4682b4; stroke: #4682b4"/>
     <use xlink:href="#me911f3452c" x="184.82555" y="190.570279" style="fill: #4682b4; stroke: #4682b4"/>
     <use xlink:href="#me911f3452c" x="427.620947" y="199.748746" style="fill: #4682b4; stroke: #4682b4"/>
     <use xlink:href="#me911f3452c" x="338.915105" y="213.847222" style="fill: #4682b4; stroke: #4682b4"/>
     <use xlink:href="#me911f3452c" x="182.46362" y="191.890058" style="fill: #4682b4; stroke: #4682b4"/>
     <use xlink:href="#me911f3452c" x="152.507652" y="186.255398" style="fill: #4682b4; stroke: #4682b4"/>
     <use xlink:href="#me911f3452c" x="421.025788" y="232.573287" style="fill: #4682b4; stroke: #4682b4"/>
     <use xlink:href="#me911f3452c" x="107.221022" y="113.861761" style="fill: #4682b4; stroke: #4682b4"/>
     <use xlink:href="#me911f3452c" x="181.097099" y="255.674985" style="fill: #4682b4; stroke: #4682b4"/>
     <use xlink:href="#me911f3452c" x="359.116386" y="203.267765" style="fill: #4682b4; stroke: #4682b4"/>
     <use xlink:href="#me911f3452c" x="163.231391" y="219.546256" style="fill: #4682b4; stroke: #4682b4"/>
     <use xlink:href="#me911f3452c" x="346.168803" y="205.694948" style="fill: #4682b4; stroke: #4682b4"/>
     <use xlink:href="#me911f3452c" x="100.54301" y="211.36906" style="fill: #4682b4; stroke: #4682b4"/>
     <use xlink:href="#me911f3452c" x="295.263075" y="269.700845" style="fill: #4682b4; stroke: #4682b4"/>
     <use xlink:href="#me911f3452c" x="419.171709" y="211.463319" style="fill: #4682b4; stroke: #4682b4"/>
     <use xlink:href="#me911f3452c" x="136.653478" y="216.277149" style="fill: #4682b4; stroke: #4682b4"/>
     <use xlink:href="#me911f3452c" x="228.181538" y="276.430376" style="fill: #4682b4; stroke: #4682b4"/>
     <use xlink:href="#me911f3452c" x="107.214201" y="200.699449" style="fill: #4682b4; stroke: #4682b4"/>
     <use xlink:href="#me911f3452c" x="104.704849" y="190.681685" style="fill: #4682b4; stroke: #4682b4"/>
     <use xlink:href="#me911f3452c" x="392.29769" y="81.049532" style="fill: #4682b4; stroke: #4682b4"/>
     <use xlink:href="#me911f3452c" x="217.911642" y="276.591249" style="fill: #4682b4; stroke: #4682b4"/>
     <use xlink:href="#me911f3452c" x="343.987927" y="131.507843" style="fill: #4682b4; stroke: #4682b4"/>
     <use xlink:href="#me911f3452c" x="310.086254" y="208.649749" style="fill: #4682b4; stroke: #4682b4"/>
     <use xlink:href="#me911f3452c" x="295.185091" y="269.720907" style="fill: #4682b4; stroke: #4682b4"/>
     <use xlink:href="#me911f3452c" x="131.838337" y="137.165813" style="fill: #4682b4; stroke: #4682b4"/>
     <use xlink:href="#me911f3452c" x="139.411283" y="250.204394" style="fill: #4682b4; stroke: #4682b4"/>
     <use xlink:href="#me911f3452c" x="89.747246" y="113.191043" style="fill: #4682b4; stroke: #4682b4"/>
     <use xlink:href="#me911f3452c" x="349.809878" y="243.390422" style="fill: #4682b4; stroke: #4682b4"/>
     <use xlink:href="#me911f3452c" x="162.837689" y="262.187466" style="fill: #4682b4; stroke: #4682b4"/>
     <use xlink:href="#me911f3452c" x="192.622172" y="190.685965" style="fill: #4682b4; stroke: #4682b4"/>
     <use xlink:href="#me911f3452c" x="199.282819" y="252.329488" style="fill: #4682b4; stroke: #4682b4"/>
     <use xlink:href="#me911f3452c" x="338.581489" y="137.824832" style="fill: #4682b4; stroke: #4682b4"/>
     <use xlink:href="#me911f3452c" x="94.406398" y="218.591801" style="fill: #4682b4; stroke: #4682b4"/>
     <use xlink:href="#me911f3452c" x="156.207929" y="227.651663" style="fill: #4682b4; stroke: #4682b4"/>
     <use xlink:href="#me911f3452c" x="198.837399" y="275.55636" style="fill: #4682b4; stroke: #4682b4"/>
     <use xlink:href="#me911f3452c" x="313.012164" y="241.246459" style="fill: #4682b4; stroke: #4682b4"/>
     <use xlink:href="#me911f3452c" x="147.105256" y="182.152622" style="fill: #4682b4; stroke: #4682b4"/>
     <use xlink:href="#me911f3452c" x="351.406905" y="139.633242" style="fill: #4682b4; stroke: #4682b4"/>
     <use xlink:href="#me911f3452c" x="380.723667" y="262.869085" style="fill: #4682b4; stroke: #4682b4"/>
     <use xlink:href="#me911f3452c" x="401.731938" y="120.679537" style="fill: #4682b4; stroke: #4682b4"/>
     <use xlink:href="#me911f3452c" x="402.743164" y="247.997021" style="fill: #4682b4; stroke: #4682b4"/>
     <use xlink:href="#me911f3452c" x="198.832138" y="190.961611" style="fill: #4682b4; stroke: #4682b4"/>
     <use xlink:href="#me911f3452c" x="413.17524" y="160.07532" style="fill: #4682b4; stroke: #4682b4"/>
     <use xlink:href="#me911f3452c" x="330.37385" y="189.159012" style="fill: #4682b4; stroke: #4682b4"/>
     <use xlink:href="#me911f3452c" x="317.840591" y="214.661625" style="fill: #4682b4; stroke: #4682b4"/>
     <use xlink:href="#me911f3452c" x="384.134732" y="173.311995" style="fill: #4682b4; stroke: #4682b4"/>
     <use xlink:href="#me911f3452c" x="130.58325" y="244.113698" style="fill: #4682b4; stroke: #4682b4"/>
     <use xlink:href="#me911f3452c" x="129.229063" y="147.373358" style="fill: #4682b4; stroke: #4682b4"/>
     <use xlink:href="#me911f3452c" x="395.682859" y="90.266903" style="fill: #4682b4; stroke: #4682b4"/>
     <use xlink:href="#me911f3452c" x="94.953568" y="271.767672" style="fill: #4682b4; stroke: #4682b4"/>
    </g>
   </g>
   <g id="PathCollection_2">
    <defs>
     <path id="m3c43a76b81" d="M -3 3 
L 3 -3 
M -3 -3 
L 3 3 
" style="stroke: #8b0000; stroke-width: 1.5"/>
    </defs>
    <g clip-path="url(#p5612a28c65)">
     <use xlink:href="#m3c43a76b81" x="216.604607" y="153.038829" style="fill: #8b0000; stroke: #8b0000; stroke-width: 1.5"/>
     <use xlink:href="#m3c43a76b81" x="428.357167" y="112.118355" style="fill: #8b0000; stroke: #8b0000; stroke-width: 1.5"/>
     <use xlink:href="#m3c43a76b81" x="287.525874" y="163.049745" style="fill: #8b0000; stroke: #8b0000; stroke-width: 1.5"/>
     <use xlink:href="#m3c43a76b81" x="301.65666" y="84.293094" style="fill: #8b0000; stroke: #8b0000; stroke-width: 1.5"/>
     <use xlink:href="#m3c43a76b81" x="265.842309" y="150.539783" style="fill: #8b0000; stroke: #8b0000; stroke-width: 1.5"/>
     <use xlink:href="#m3c43a76b81" x="280.711991" y="171.774817" style="fill: #8b0000; stroke: #8b0000; stroke-width: 1.5"/>
     <use xlink:href="#m3c43a76b81" x="211.247063" y="177.072175" style="fill: #8b0000; stroke: #8b0000; stroke-width: 1.5"/>
     <use xlink:href="#m3c43a76b81" x="286.708326" y="126.5704" style="fill: #8b0000; stroke: #8b0000; stroke-width: 1.5"/>
     <use xlink:href="#m3c43a76b81" x="251.992757" y="141.576469" style="fill: #8b0000; stroke: #8b0000; stroke-width: 1.5"/>
     <use xlink:href="#m3c43a76b81" x="297.396798" y="101.897528" style="fill: #8b0000; stroke: #8b0000; stroke-width: 1.5"/>
     <use xlink:href="#m3c43a76b81" x="257.427549" y="125.936639" style="fill: #8b0000; stroke: #8b0000; stroke-width: 1.5"/>
     <use xlink:href="#m3c43a76b81" x="293.355114" y="186.628502" style="fill: #8b0000; stroke: #8b0000; stroke-width: 1.5"/>
     <use xlink:href="#m3c43a76b81" x="303.390375" y="100.44082" style="fill: #8b0000; stroke: #8b0000; stroke-width: 1.5"/>
     <use xlink:href="#m3c43a76b81" x="197.605863" y="73.88214" style="fill: #8b0000; stroke: #8b0000; stroke-width: 1.5"/>
     <use xlink:href="#m3c43a76b81" x="169.602691" y="79.14141" style="fill: #8b0000; stroke: #8b0000; stroke-width: 1.5"/>
     <use xlink:href="#m3c43a76b81" x="294.417942" y="174.418435" style="fill: #8b0000; stroke: #8b0000; stroke-width: 1.5"/>
     <use xlink:href="#m3c43a76b81" x="233.015567" y="82.316066" style="fill: #8b0000; stroke: #8b0000; stroke-width: 1.5"/>
     <use xlink:href="#m3c43a76b81" x="256.367025" y="130.018752" style="fill: #8b0000; stroke: #8b0000; stroke-width: 1.5"/>
     <use xlink:href="#m3c43a76b81" x="218.391953" y="199.520306" style="fill: #8b0000; stroke: #8b0000; stroke-width: 1.5"/>
     <use xlink:href="#m3c43a76b81" x="216.646954" y="179.147942" style="fill: #8b0000; stroke: #8b0000; stroke-width: 1.5"/>
     <use xlink:href="#m3c43a76b81" x="232.363301" y="196.669076" style="fill: #8b0000; stroke: #8b0000; stroke-width: 1.5"/>
     <use xlink:href="#m3c43a76b81" x="191.833633" y="146.196267" style="fill: #8b0000; stroke: #8b0000; stroke-width: 1.5"/>
     <use xlink:href="#m3c43a76b81" x="293.609926" y="179.817293" style="fill: #8b0000; stroke: #8b0000; stroke-width: 1.5"/>
     <use xlink:href="#m3c43a76b81" x="254.044306" y="198.744073" style="fill: #8b0000; stroke: #8b0000; stroke-width: 1.5"/>
     <use xlink:href="#m3c43a76b81" x="415.445841" y="70.347189" style="fill: #8b0000; stroke: #8b0000; stroke-width: 1.5"/>
     <use xlink:href="#m3c43a76b81" x="201.927002" y="161.872446" style="fill: #8b0000; stroke: #8b0000; stroke-width: 1.5"/>
     <use xlink:href="#m3c43a76b81" x="260.500155" y="180.85767" style="fill: #8b0000; stroke: #8b0000; stroke-width: 1.5"/>
     <use xlink:href="#m3c43a76b81" x="421.641384" y="101.922368" style="fill: #8b0000; stroke: #8b0000; stroke-width: 1.5"/>
     <use xlink:href="#m3c43a76b81" x="248.464388" y="116.089956" style="fill: #8b0000; stroke: #8b0000; stroke-width: 1.5"/>
     <use xlink:href="#m3c43a76b81" x="230.573224" y="239.709637" style="fill: #8b0000; stroke: #8b0000; stroke-width: 1.5"/>
     <use xlink:href="#m3c43a76b81" x="307.559335" y="91.485925" style="fill: #8b0000; stroke: #8b0000; stroke-width: 1.5"/>
     <use xlink:href="#m3c43a76b81" x="244.428298" y="241.312219" style="fill: #8b0000; stroke: #8b0000; stroke-width: 1.5"/>
     <use xlink:href="#m3c43a76b81" x="264.254533" y="136.520261" style="fill: #8b0000; stroke: #8b0000; stroke-width: 1.5"/>
     <use xlink:href="#m3c43a76b81" x="292.047083" y="203.558781" style="fill: #8b0000; stroke: #8b0000; stroke-width: 1.5"/>
    </g>
   </g>
   <g id="matplotlib.axis_1">
    <g id="xtick_1">
     <g id="line2d_2">
      <defs>
       <path id="m458b3f3899" d="M 0 0 
L 0 3.5 
" style="stroke: #000000; stroke-width: 0.8"/>
      </defs>
      <g>
       <use xlink:href="#m458b3f3899" x="80.754545" y="288.36" style="stroke: #000000; stroke-width: 0.8"/>
      </g>
     </g>
     <g id="text_1">
      <!-- −2.0 -->
      <g transform="translate(68.613139 302.958438)scale(0.1 -0.1)">
       <defs>
        <path id="DejaVuSans-2212" d="M 678 2272 
L 4684 2272 
L 4684 1741 
L 678 1741 
L 678 2272 
z
" transform="scale(0.015625)"/>
        <path id="DejaVuSans-32" d="M 1228 531 
L 3431 531 
L 3431 0 
L 469 0 
L 469 531 
Q 828 903 1448 1529 
Q 2069 2156 2228 2338 
Q 2531 2678 2651 2914 
Q 2772 3150 2772 3378 
Q 2772 3750 2511 3984 
Q 2250 4219 1831 4219 
Q 1534 4219 1204 4116 
Q 875 4013 500 3803 
L 500 4441 
Q 881 4594 1212 4672 
Q 1544 4750 1819 4750 
Q 2544 4750 2975 4387 
Q 3406 4025 3406 3419 
Q 3406 3131 3298 2873 
Q 3191 2616 2906 2266 
Q 2828 2175 2409 1742 
Q 1991 1309 1228 531 
z
" transform="scale(0.015625)"/>
        <path id="DejaVuSans-2e" d="M 684 794 
L 1344 794 
L 1344 0 
L 684 0 
L 684 794 
z
" transform="scale(0.015625)"/>
        <path id="DejaVuSans-30" d="M 2034 4250 
Q 1547 4250 1301 3770 
Q 1056 3291 1056 2328 
Q 1056 1369 1301 889 
Q 1547 409 2034 409 
Q 2525 409 2770 889 
Q 3016 1369 3016 2328 
Q 3016 3291 2770 3770 
Q 2525 4250 2034 4250 
z
M 2034 4750 
Q 2819 4750 3233 4129 
Q 3647 3509 3647 2328 
Q 3647 1150 3233 529 
Q 2819 -91 2034 -91 
Q 1250 -91 836 529 
Q 422 1150 422 2328 
Q 422 3509 836 4129 
Q 1250 4750 2034 4750 
z
" transform="scale(0.015625)"/>
       </defs>
       <use xlink:href="#DejaVuSans-2212"/>
       <use xlink:href="#DejaVuSans-32" x="83.789062"/>
       <use xlink:href="#DejaVuSans-2e" x="147.412109"/>
       <use xlink:href="#DejaVuSans-30" x="179.199219"/>
      </g>
     </g>
    </g>
    <g id="xtick_2">
     <g id="line2d_3">
      <g>
       <use xlink:href="#m458b3f3899" x="125.140909" y="288.36" style="stroke: #000000; stroke-width: 0.8"/>
      </g>
     </g>
     <g id="text_2">
      <!-- −1.5 -->
      <g transform="translate(112.999503 302.958438)scale(0.1 -0.1)">
       <defs>
        <path id="DejaVuSans-31" d="M 794 531 
L 1825 531 
L 1825 4091 
L 703 3866 
L 703 4441 
L 1819 4666 
L 2450 4666 
L 2450 531 
L 3481 531 
L 3481 0 
L 794 0 
L 794 531 
z
" transform="scale(0.015625)"/>
        <path id="DejaVuSans-35" d="M 691 4666 
L 3169 4666 
L 3169 4134 
L 1269 4134 
L 1269 2991 
Q 1406 3038 1543 3061 
Q 1681 3084 1819 3084 
Q 2600 3084 3056 2656 
Q 3513 2228 3513 1497 
Q 3513 744 3044 326 
Q 2575 -91 1722 -91 
Q 1428 -91 1123 -41 
Q 819 9 494 109 
L 494 744 
Q 775 591 1075 516 
Q 1375 441 1709 441 
Q 2250 441 2565 725 
Q 2881 1009 2881 1497 
Q 2881 1984 2565 2268 
Q 2250 2553 1709 2553 
Q 1456 2553 1204 2497 
Q 953 2441 691 2322 
L 691 4666 
z
" transform="scale(0.015625)"/>
       </defs>
       <use xlink:href="#DejaVuSans-2212"/>
       <use xlink:href="#DejaVuSans-31" x="83.789062"/>
       <use xlink:href="#DejaVuSans-2e" x="147.412109"/>
       <use xlink:href="#DejaVuSans-35" x="179.199219"/>
      </g>
     </g>
    </g>
    <g id="xtick_3">
     <g id="line2d_4">
      <g>
       <use xlink:href="#m458b3f3899" x="169.527273" y="288.36" style="stroke: #000000; stroke-width: 0.8"/>
      </g>
     </g>
     <g id="text_3">
      <!-- −1.0 -->
      <g transform="translate(157.385866 302.958438)scale(0.1 -0.1)">
       <use xlink:href="#DejaVuSans-2212"/>
       <use xlink:href="#DejaVuSans-31" x="83.789062"/>
       <use xlink:href="#DejaVuSans-2e" x="147.412109"/>
       <use xlink:href="#DejaVuSans-30" x="179.199219"/>
      </g>
     </g>
    </g>
    <g id="xtick_4">
     <g id="line2d_5">
      <g>
       <use xlink:href="#m458b3f3899" x="213.913636" y="288.36" style="stroke: #000000; stroke-width: 0.8"/>
      </g>
     </g>
     <g id="text_4">
      <!-- −0.5 -->
      <g transform="translate(201.77223 302.958438)scale(0.1 -0.1)">
       <use xlink:href="#DejaVuSans-2212"/>
       <use xlink:href="#DejaVuSans-30" x="83.789062"/>
       <use xlink:href="#DejaVuSans-2e" x="147.412109"/>
       <use xlink:href="#DejaVuSans-35" x="179.199219"/>
      </g>
     </g>
    </g>
    <g id="xtick_5">
     <g id="line2d_6">
      <g>
       <use xlink:href="#m458b3f3899" x="258.3" y="288.36" style="stroke: #000000; stroke-width: 0.8"/>
      </g>
     </g>
     <g id="text_5">
      <!-- 0.0 -->
      <g transform="translate(250.348438 302.958438)scale(0.1 -0.1)">
       <use xlink:href="#DejaVuSans-30"/>
       <use xlink:href="#DejaVuSans-2e" x="63.623047"/>
       <use xlink:href="#DejaVuSans-30" x="95.410156"/>
      </g>
     </g>
    </g>
    <g id="xtick_6">
     <g id="line2d_7">
      <g>
       <use xlink:href="#m458b3f3899" x="302.686364" y="288.36" style="stroke: #000000; stroke-width: 0.8"/>
      </g>
     </g>
     <g id="text_6">
      <!-- 0.5 -->
      <g transform="translate(294.734801 302.958438)scale(0.1 -0.1)">
       <use xlink:href="#DejaVuSans-30"/>
       <use xlink:href="#DejaVuSans-2e" x="63.623047"/>
       <use xlink:href="#DejaVuSans-35" x="95.410156"/>
      </g>
     </g>
    </g>
    <g id="xtick_7">
     <g id="line2d_8">
      <g>
       <use xlink:href="#m458b3f3899" x="347.072727" y="288.36" style="stroke: #000000; stroke-width: 0.8"/>
      </g>
     </g>
     <g id="text_7">
      <!-- 1.0 -->
      <g transform="translate(339.121165 302.958438)scale(0.1 -0.1)">
       <use xlink:href="#DejaVuSans-31"/>
       <use xlink:href="#DejaVuSans-2e" x="63.623047"/>
       <use xlink:href="#DejaVuSans-30" x="95.410156"/>
      </g>
     </g>
    </g>
    <g id="xtick_8">
     <g id="line2d_9">
      <g>
       <use xlink:href="#m458b3f3899" x="391.459091" y="288.36" style="stroke: #000000; stroke-width: 0.8"/>
      </g>
     </g>
     <g id="text_8">
      <!-- 1.5 -->
      <g transform="translate(383.507528 302.958438)scale(0.1 -0.1)">
       <use xlink:href="#DejaVuSans-31"/>
       <use xlink:href="#DejaVuSans-2e" x="63.623047"/>
       <use xlink:href="#DejaVuSans-35" x="95.410156"/>
      </g>
     </g>
    </g>
    <g id="xtick_9">
     <g id="line2d_10">
      <g>
       <use xlink:href="#m458b3f3899" x="435.845455" y="288.36" style="stroke: #000000; stroke-width: 0.8"/>
      </g>
     </g>
     <g id="text_9">
      <!-- 2.0 -->
      <g transform="translate(427.893892 302.958438)scale(0.1 -0.1)">
       <use xlink:href="#DejaVuSans-32"/>
       <use xlink:href="#DejaVuSans-2e" x="63.623047"/>
       <use xlink:href="#DejaVuSans-30" x="95.410156"/>
      </g>
     </g>
    </g>
    <g id="text_10">
     <!-- $x$ -->
     <g transform="translate(255.3 316.636563)scale(0.1 -0.1)">
      <defs>
       <path id="DejaVuSans-Oblique-78" d="M 3841 3500 
L 2234 1784 
L 3219 0 
L 2559 0 
L 1819 1388 
L 531 0 
L -166 0 
L 1556 1844 
L 641 3500 
L 1300 3500 
L 1972 2234 
L 3144 3500 
L 3841 3500 
z
" transform="scale(0.015625)"/>
      </defs>
      <use xlink:href="#DejaVuSans-Oblique-78" transform="translate(0 0.3125)"/>
     </g>
    </g>
   </g>
   <g id="matplotlib.axis_2">
    <g id="ytick_1">
     <g id="line2d_11">
      <defs>
       <path id="mbbc9640571" d="M 0 0 
L -3.5 0 
" style="stroke: #000000; stroke-width: 0.8"/>
      </defs>
      <g>
       <use xlink:href="#mbbc9640571" x="63" y="277.965" style="stroke: #000000; stroke-width: 0.8"/>
      </g>
     </g>
     <g id="text_11">
      <!-- 0.00 -->
      <g transform="translate(33.734375 281.764219)scale(0.1 -0.1)">
       <use xlink:href="#DejaVuSans-30"/>
       <use xlink:href="#DejaVuSans-2e" x="63.623047"/>
       <use xlink:href="#DejaVuSans-30" x="95.410156"/>
       <use xlink:href="#DejaVuSans-30" x="159.033203"/>
      </g>
     </g>
    </g>
    <g id="ytick_2">
     <g id="line2d_12">
      <g>
       <use xlink:href="#mbbc9640571" x="63" y="244.16204" style="stroke: #000000; stroke-width: 0.8"/>
      </g>
     </g>
     <g id="text_12">
      <!-- 0.05 -->
      <g transform="translate(33.734375 247.961259)scale(0.1 -0.1)">
       <use xlink:href="#DejaVuSans-30"/>
       <use xlink:href="#DejaVuSans-2e" x="63.623047"/>
       <use xlink:href="#DejaVuSans-30" x="95.410156"/>
       <use xlink:href="#DejaVuSans-35" x="159.033203"/>
      </g>
     </g>
    </g>
    <g id="ytick_3">
     <g id="line2d_13">
      <g>
       <use xlink:href="#mbbc9640571" x="63" y="210.359081" style="stroke: #000000; stroke-width: 0.8"/>
      </g>
     </g>
     <g id="text_13">
      <!-- 0.10 -->
      <g transform="translate(33.734375 214.158299)scale(0.1 -0.1)">
       <use xlink:href="#DejaVuSans-30"/>
       <use xlink:href="#DejaVuSans-2e" x="63.623047"/>
       <use xlink:href="#DejaVuSans-31" x="95.410156"/>
       <use xlink:href="#DejaVuSans-30" x="159.033203"/>
      </g>
     </g>
    </g>
    <g id="ytick_4">
     <g id="line2d_14">
      <g>
       <use xlink:href="#mbbc9640571" x="63" y="176.556121" style="stroke: #000000; stroke-width: 0.8"/>
      </g>
     </g>
     <g id="text_14">
      <!-- 0.15 -->
      <g transform="translate(33.734375 180.35534)scale(0.1 -0.1)">
       <use xlink:href="#DejaVuSans-30"/>
       <use xlink:href="#DejaVuSans-2e" x="63.623047"/>
       <use xlink:href="#DejaVuSans-31" x="95.410156"/>
       <use xlink:href="#DejaVuSans-35" x="159.033203"/>
      </g>
     </g>
    </g>
    <g id="ytick_5">
     <g id="line2d_15">
      <g>
       <use xlink:href="#mbbc9640571" x="63" y="142.753161" style="stroke: #000000; stroke-width: 0.8"/>
      </g>
     </g>
     <g id="text_15">
      <!-- 0.20 -->
      <g transform="translate(33.734375 146.55238)scale(0.1 -0.1)">
       <use xlink:href="#DejaVuSans-30"/>
       <use xlink:href="#DejaVuSans-2e" x="63.623047"/>
       <use xlink:href="#DejaVuSans-32" x="95.410156"/>
       <use xlink:href="#DejaVuSans-30" x="159.033203"/>
      </g>
     </g>
    </g>
    <g id="ytick_6">
     <g id="line2d_16">
      <g>
       <use xlink:href="#mbbc9640571" x="63" y="108.950202" style="stroke: #000000; stroke-width: 0.8"/>
      </g>
     </g>
     <g id="text_16">
      <!-- 0.25 -->
      <g transform="translate(33.734375 112.749421)scale(0.1 -0.1)">
       <use xlink:href="#DejaVuSans-30"/>
       <use xlink:href="#DejaVuSans-2e" x="63.623047"/>
       <use xlink:href="#DejaVuSans-32" x="95.410156"/>
       <use xlink:href="#DejaVuSans-35" x="159.033203"/>
      </g>
     </g>
    </g>
    <g id="ytick_7">
     <g id="line2d_17">
      <g>
       <use xlink:href="#mbbc9640571" x="63" y="75.147242" style="stroke: #000000; stroke-width: 0.8"/>
      </g>
     </g>
     <g id="text_17">
      <!-- 0.30 -->
      <g transform="translate(33.734375 78.946461)scale(0.1 -0.1)">
       <defs>
        <path id="DejaVuSans-33" d="M 2597 2516 
Q 3050 2419 3304 2112 
Q 3559 1806 3559 1356 
Q 3559 666 3084 287 
Q 2609 -91 1734 -91 
Q 1441 -91 1130 -33 
Q 819 25 488 141 
L 488 750 
Q 750 597 1062 519 
Q 1375 441 1716 441 
Q 2309 441 2620 675 
Q 2931 909 2931 1356 
Q 2931 1769 2642 2001 
Q 2353 2234 1838 2234 
L 1294 2234 
L 1294 2753 
L 1863 2753 
Q 2328 2753 2575 2939 
Q 2822 3125 2822 3475 
Q 2822 3834 2567 4026 
Q 2313 4219 1838 4219 
Q 1578 4219 1281 4162 
Q 984 4106 628 3988 
L 628 4550 
Q 988 4650 1302 4700 
Q 1616 4750 1894 4750 
Q 2613 4750 3031 4423 
Q 3450 4097 3450 3541 
Q 3450 3153 3228 2886 
Q 3006 2619 2597 2516 
z
" transform="scale(0.015625)"/>
       </defs>
       <use xlink:href="#DejaVuSans-30"/>
       <use xlink:href="#DejaVuSans-2e" x="63.623047"/>
       <use xlink:href="#DejaVuSans-33" x="95.410156"/>
       <use xlink:href="#DejaVuSans-30" x="159.033203"/>
      </g>
     </g>
    </g>
    <g id="ytick_8">
     <g id="line2d_18">
      <g>
       <use xlink:href="#mbbc9640571" x="63" y="41.344283" style="stroke: #000000; stroke-width: 0.8"/>
      </g>
     </g>
     <g id="text_18">
      <!-- 0.35 -->
      <g transform="translate(33.734375 45.143501)scale(0.1 -0.1)">
       <use xlink:href="#DejaVuSans-30"/>
       <use xlink:href="#DejaVuSans-2e" x="63.623047"/>
       <use xlink:href="#DejaVuSans-33" x="95.410156"/>
       <use xlink:href="#DejaVuSans-35" x="159.033203"/>
      </g>
     </g>
    </g>
    <g id="text_19">
     <!-- $x^2 \cdot f(x)$ -->
     <g transform="translate(27.654687 181.37)rotate(-90)scale(0.1 -0.1)">
      <defs>
       <path id="DejaVuSans-22c5" d="M 684 2619 
L 1344 2619 
L 1344 1825 
L 684 1825 
L 684 2619 
z
" transform="scale(0.015625)"/>
       <path id="DejaVuSans-Oblique-66" d="M 3059 4863 
L 2969 4384 
L 2419 4384 
Q 2106 4384 1964 4261 
Q 1822 4138 1753 3809 
L 1691 3500 
L 2638 3500 
L 2553 3053 
L 1606 3053 
L 1013 0 
L 434 0 
L 1031 3053 
L 481 3053 
L 563 3500 
L 1113 3500 
L 1159 3744 
Q 1278 4363 1576 4613 
Q 1875 4863 2516 4863 
L 3059 4863 
z
" transform="scale(0.015625)"/>
       <path id="DejaVuSans-28" d="M 1984 4856 
Q 1566 4138 1362 3434 
Q 1159 2731 1159 2009 
Q 1159 1288 1364 580 
Q 1569 -128 1984 -844 
L 1484 -844 
Q 1016 -109 783 600 
Q 550 1309 550 2009 
Q 550 2706 781 3412 
Q 1013 4119 1484 4856 
L 1984 4856 
z
" transform="scale(0.015625)"/>
       <path id="DejaVuSans-29" d="M 513 4856 
L 1013 4856 
Q 1481 4119 1714 3412 
Q 1947 2706 1947 2009 
Q 1947 1309 1714 600 
Q 1481 -109 1013 -844 
L 513 -844 
Q 928 -128 1133 580 
Q 1338 1288 1338 2009 
Q 1338 2731 1133 3434 
Q 928 4138 513 4856 
z
" transform="scale(0.015625)"/>
      </defs>
      <use xlink:href="#DejaVuSans-Oblique-78" transform="translate(0 0.765625)"/>
      <use xlink:href="#DejaVuSans-32" transform="translate(63.645833 39.046875)scale(0.7)"/>
      <use xlink:href="#DejaVuSans-22c5" transform="translate(130.398763 0.765625)"/>
      <use xlink:href="#DejaVuSans-Oblique-66" transform="translate(181.668294 0.765625)"/>
      <use xlink:href="#DejaVuSans-28" transform="translate(216.873372 0.765625)"/>
      <use xlink:href="#DejaVuSans-Oblique-78" transform="translate(255.887044 0.765625)"/>
      <use xlink:href="#DejaVuSans-29" transform="translate(315.066732 0.765625)"/>
     </g>
    </g>
   </g>
   <g id="patch_3">
    <path d="M 63 288.36 
L 63 38.88 
" style="fill: none; stroke: #000000; stroke-width: 0.8; stroke-linejoin: miter; stroke-linecap: square"/>
   </g>
   <g id="patch_4">
    <path d="M 453.6 288.36 
L 453.6 38.88 
" style="fill: none; stroke: #000000; stroke-width: 0.8; stroke-linejoin: miter; stroke-linecap: square"/>
   </g>
   <g id="patch_5">
    <path d="M 63 288.36 
L 453.6 288.36 
" style="fill: none; stroke: #000000; stroke-width: 0.8; stroke-linejoin: miter; stroke-linecap: square"/>
   </g>
   <g id="patch_6">
    <path d="M 63 38.88 
L 453.6 38.88 
" style="fill: none; stroke: #000000; stroke-width: 0.8; stroke-linejoin: miter; stroke-linecap: square"/>
   </g>
   <g id="legend_1">
    <g id="line2d_19">
     <path d="M 72 51.978437 
L 82 51.978437 
L 92 51.978437 
" style="fill: none; stroke: #000000; stroke-width: 2; stroke-linecap: square"/>
    </g>
    <g id="text_20">
     <!-- Integrand -->
     <g transform="translate(100 55.478437)scale(0.1 -0.1)">
      <defs>
       <path id="DejaVuSans-49" d="M 628 4666 
L 1259 4666 
L 1259 0 
L 628 0 
L 628 4666 
z
" transform="scale(0.015625)"/>
       <path id="DejaVuSans-6e" d="M 3513 2113 
L 3513 0 
L 2938 0 
L 2938 2094 
Q 2938 2591 2744 2837 
Q 2550 3084 2163 3084 
Q 1697 3084 1428 2787 
Q 1159 2491 1159 1978 
L 1159 0 
L 581 0 
L 581 3500 
L 1159 3500 
L 1159 2956 
Q 1366 3272 1645 3428 
Q 1925 3584 2291 3584 
Q 2894 3584 3203 3211 
Q 3513 2838 3513 2113 
z
" transform="scale(0.015625)"/>
       <path id="DejaVuSans-74" d="M 1172 4494 
L 1172 3500 
L 2356 3500 
L 2356 3053 
L 1172 3053 
L 1172 1153 
Q 1172 725 1289 603 
Q 1406 481 1766 481 
L 2356 481 
L 2356 0 
L 1766 0 
Q 1100 0 847 248 
Q 594 497 594 1153 
L 594 3053 
L 172 3053 
L 172 3500 
L 594 3500 
L 594 4494 
L 1172 4494 
z
" transform="scale(0.015625)"/>
       <path id="DejaVuSans-65" d="M 3597 1894 
L 3597 1613 
L 953 1613 
Q 991 1019 1311 708 
Q 1631 397 2203 397 
Q 2534 397 2845 478 
Q 3156 559 3463 722 
L 3463 178 
Q 3153 47 2828 -22 
Q 2503 -91 2169 -91 
Q 1331 -91 842 396 
Q 353 884 353 1716 
Q 353 2575 817 3079 
Q 1281 3584 2069 3584 
Q 2775 3584 3186 3129 
Q 3597 2675 3597 1894 
z
M 3022 2063 
Q 3016 2534 2758 2815 
Q 2500 3097 2075 3097 
Q 1594 3097 1305 2825 
Q 1016 2553 972 2059 
L 3022 2063 
z
" transform="scale(0.015625)"/>
       <path id="DejaVuSans-67" d="M 2906 1791 
Q 2906 2416 2648 2759 
Q 2391 3103 1925 3103 
Q 1463 3103 1205 2759 
Q 947 2416 947 1791 
Q 947 1169 1205 825 
Q 1463 481 1925 481 
Q 2391 481 2648 825 
Q 2906 1169 2906 1791 
z
M 3481 434 
Q 3481 -459 3084 -895 
Q 2688 -1331 1869 -1331 
Q 1566 -1331 1297 -1286 
Q 1028 -1241 775 -1147 
L 775 -588 
Q 1028 -725 1275 -790 
Q 1522 -856 1778 -856 
Q 2344 -856 2625 -561 
Q 2906 -266 2906 331 
L 2906 616 
Q 2728 306 2450 153 
Q 2172 0 1784 0 
Q 1141 0 747 490 
Q 353 981 353 1791 
Q 353 2603 747 3093 
Q 1141 3584 1784 3584 
Q 2172 3584 2450 3431 
Q 2728 3278 2906 2969 
L 2906 3500 
L 3481 3500 
L 3481 434 
z
" transform="scale(0.015625)"/>
       <path id="DejaVuSans-72" d="M 2631 2963 
Q 2534 3019 2420 3045 
Q 2306 3072 2169 3072 
Q 1681 3072 1420 2755 
Q 1159 2438 1159 1844 
L 1159 0 
L 581 0 
L 581 3500 
L 1159 3500 
L 1159 2956 
Q 1341 3275 1631 3429 
Q 1922 3584 2338 3584 
Q 2397 3584 2469 3576 
Q 2541 3569 2628 3553 
L 2631 2963 
z
" transform="scale(0.015625)"/>
       <path id="DejaVuSans-61" d="M 2194 1759 
Q 1497 1759 1228 1600 
Q 959 1441 959 1056 
Q 959 750 1161 570 
Q 1363 391 1709 391 
Q 2188 391 2477 730 
Q 2766 1069 2766 1631 
L 2766 1759 
L 2194 1759 
z
M 3341 1997 
L 3341 0 
L 2766 0 
L 2766 531 
Q 2569 213 2275 61 
Q 1981 -91 1556 -91 
Q 1019 -91 701 211 
Q 384 513 384 1019 
Q 384 1609 779 1909 
Q 1175 2209 1959 2209 
L 2766 2209 
L 2766 2266 
Q 2766 2663 2505 2880 
Q 2244 3097 1772 3097 
Q 1472 3097 1187 3025 
Q 903 2953 641 2809 
L 641 3341 
Q 956 3463 1253 3523 
Q 1550 3584 1831 3584 
Q 2591 3584 2966 3190 
Q 3341 2797 3341 1997 
z
" transform="scale(0.015625)"/>
       <path id="DejaVuSans-64" d="M 2906 2969 
L 2906 4863 
L 3481 4863 
L 3481 0 
L 2906 0 
L 2906 525 
Q 2725 213 2448 61 
Q 2172 -91 1784 -91 
Q 1150 -91 751 415 
Q 353 922 353 1747 
Q 353 2572 751 3078 
Q 1150 3584 1784 3584 
Q 2172 3584 2448 3432 
Q 2725 3281 2906 2969 
z
M 947 1747 
Q 947 1113 1208 752 
Q 1469 391 1925 391 
Q 2381 391 2643 752 
Q 2906 1113 2906 1747 
Q 2906 2381 2643 2742 
Q 2381 3103 1925 3103 
Q 1469 3103 1208 2742 
Q 947 2381 947 1747 
z
" transform="scale(0.015625)"/>
      </defs>
      <use xlink:href="#DejaVuSans-49"/>
      <use xlink:href="#DejaVuSans-6e" x="29.492188"/>
      <use xlink:href="#DejaVuSans-74" x="92.871094"/>
      <use xlink:href="#DejaVuSans-65" x="132.080078"/>
      <use xlink:href="#DejaVuSans-67" x="193.603516"/>
      <use xlink:href="#DejaVuSans-72" x="257.080078"/>
      <use xlink:href="#DejaVuSans-61" x="298.193359"/>
      <use xlink:href="#DejaVuSans-6e" x="359.472656"/>
      <use xlink:href="#DejaVuSans-64" x="422.851562"/>
     </g>
    </g>
    <g id="line2d_20">
     <path d="M 168.634375 51.978437 
L 178.634375 51.978437 
L 188.634375 51.978437 
" style="fill: none; stroke-dasharray: 1.5,2.475; stroke-dashoffset: 0; stroke: #0000ff; stroke-width: 1.5"/>
    </g>
    <g id="text_21">
     <!-- Bounding rectangle -->
     <g transform="translate(196.634375 55.478437)scale(0.1 -0.1)">
      <defs>
       <path id="DejaVuSans-42" d="M 1259 2228 
L 1259 519 
L 2272 519 
Q 2781 519 3026 730 
Q 3272 941 3272 1375 
Q 3272 1813 3026 2020 
Q 2781 2228 2272 2228 
L 1259 2228 
z
M 1259 4147 
L 1259 2741 
L 2194 2741 
Q 2656 2741 2882 2914 
Q 3109 3088 3109 3444 
Q 3109 3797 2882 3972 
Q 2656 4147 2194 4147 
L 1259 4147 
z
M 628 4666 
L 2241 4666 
Q 2963 4666 3353 4366 
Q 3744 4066 3744 3513 
Q 3744 3084 3544 2831 
Q 3344 2578 2956 2516 
Q 3422 2416 3680 2098 
Q 3938 1781 3938 1306 
Q 3938 681 3513 340 
Q 3088 0 2303 0 
L 628 0 
L 628 4666 
z
" transform="scale(0.015625)"/>
       <path id="DejaVuSans-6f" d="M 1959 3097 
Q 1497 3097 1228 2736 
Q 959 2375 959 1747 
Q 959 1119 1226 758 
Q 1494 397 1959 397 
Q 2419 397 2687 759 
Q 2956 1122 2956 1747 
Q 2956 2369 2687 2733 
Q 2419 3097 1959 3097 
z
M 1959 3584 
Q 2709 3584 3137 3096 
Q 3566 2609 3566 1747 
Q 3566 888 3137 398 
Q 2709 -91 1959 -91 
Q 1206 -91 779 398 
Q 353 888 353 1747 
Q 353 2609 779 3096 
Q 1206 3584 1959 3584 
z
" transform="scale(0.015625)"/>
       <path id="DejaVuSans-75" d="M 544 1381 
L 544 3500 
L 1119 3500 
L 1119 1403 
Q 1119 906 1312 657 
Q 1506 409 1894 409 
Q 2359 409 2629 706 
Q 2900 1003 2900 1516 
L 2900 3500 
L 3475 3500 
L 3475 0 
L 2900 0 
L 2900 538 
Q 2691 219 2414 64 
Q 2138 -91 1772 -91 
Q 1169 -91 856 284 
Q 544 659 544 1381 
z
M 1991 3584 
L 1991 3584 
z
" transform="scale(0.015625)"/>
       <path id="DejaVuSans-69" d="M 603 3500 
L 1178 3500 
L 1178 0 
L 603 0 
L 603 3500 
z
M 603 4863 
L 1178 4863 
L 1178 4134 
L 603 4134 
L 603 4863 
z
" transform="scale(0.015625)"/>
       <path id="DejaVuSans-20" transform="scale(0.015625)"/>
       <path id="DejaVuSans-63" d="M 3122 3366 
L 3122 2828 
Q 2878 2963 2633 3030 
Q 2388 3097 2138 3097 
Q 1578 3097 1268 2742 
Q 959 2388 959 1747 
Q 959 1106 1268 751 
Q 1578 397 2138 397 
Q 2388 397 2633 464 
Q 2878 531 3122 666 
L 3122 134 
Q 2881 22 2623 -34 
Q 2366 -91 2075 -91 
Q 1284 -91 818 406 
Q 353 903 353 1747 
Q 353 2603 823 3093 
Q 1294 3584 2113 3584 
Q 2378 3584 2631 3529 
Q 2884 3475 3122 3366 
z
" transform="scale(0.015625)"/>
       <path id="DejaVuSans-6c" d="M 603 4863 
L 1178 4863 
L 1178 0 
L 603 0 
L 603 4863 
z
" transform="scale(0.015625)"/>
      </defs>
      <use xlink:href="#DejaVuSans-42"/>
      <use xlink:href="#DejaVuSans-6f" x="68.603516"/>
      <use xlink:href="#DejaVuSans-75" x="129.785156"/>
      <use xlink:href="#DejaVuSans-6e" x="193.164062"/>
      <use xlink:href="#DejaVuSans-64" x="256.542969"/>
      <use xlink:href="#DejaVuSans-69" x="320.019531"/>
      <use xlink:href="#DejaVuSans-6e" x="347.802734"/>
      <use xlink:href="#DejaVuSans-67" x="411.181641"/>
      <use xlink:href="#DejaVuSans-20" x="474.658203"/>
      <use xlink:href="#DejaVuSans-72" x="506.445312"/>
      <use xlink:href="#DejaVuSans-65" x="545.308594"/>
      <use xlink:href="#DejaVuSans-63" x="606.832031"/>
      <use xlink:href="#DejaVuSans-74" x="661.8125"/>
      <use xlink:href="#DejaVuSans-61" x="701.021484"/>
      <use xlink:href="#DejaVuSans-6e" x="762.300781"/>
      <use xlink:href="#DejaVuSans-67" x="825.679688"/>
      <use xlink:href="#DejaVuSans-6c" x="889.15625"/>
      <use xlink:href="#DejaVuSans-65" x="916.939453"/>
     </g>
    </g>
   </g>
   <g id="line2d_21">
    <path d="M 80.754545 125.000728 
L 84.341322 118.889574 
L 87.928099 112.94451 
L 91.514876 107.207962 
L 95.101653 101.72334 
L 98.68843 96.534667 
L 102.275207 91.686169 
L 105.861983 87.221835 
L 109.44876 83.184951 
L 113.035537 79.617606 
L 116.622314 76.56019 
L 120.209091 74.05087 
L 123.795868 72.125066 
L 127.382645 70.814931 
L 130.969421 70.148831 
L 134.556198 70.150851 
L 138.142975 70.840319 
L 141.729752 72.231366 
L 145.316529 74.332526 
L 148.903306 77.146377 
L 152.490083 80.669248 
L 156.07686 84.89098 
L 159.663636 89.794758 
L 163.250413 95.357017 
L 166.83719 101.547424 
L 170.423967 108.328949 
L 174.010744 115.658009 
L 177.597521 123.48471 
L 181.184298 131.753169 
L 184.771074 140.401918 
L 188.357851 149.3644 
L 191.944628 158.569531 
L 195.531405 167.942344 
L 199.118182 177.404697 
L 202.704959 186.876037 
L 206.291736 196.274216 
L 209.878512 205.516347 
L 213.465289 214.519687 
L 217.052066 223.202539 
L 220.638843 231.485157 
L 224.22562 239.290646 
L 227.812397 246.545843 
L 231.399174 253.182162 
L 234.98595 259.136398 
L 238.572727 264.351474 
L 242.159504 268.777123 
L 245.746281 272.370489 
L 249.333058 275.096644 
L 252.919835 276.929015 
L 256.506612 277.849702 
L 260.093388 277.849702 
L 263.680165 276.929015 
L 267.266942 275.096644 
L 270.853719 272.370489 
L 274.440496 268.777123 
L 278.027273 264.351474 
L 281.61405 259.136398 
L 285.200826 253.182162 
L 288.787603 246.545843 
L 292.37438 239.290646 
L 295.961157 231.485157 
L 299.547934 223.202539 
L 303.134711 214.519687 
L 306.721488 205.516347 
L 310.308264 196.274216 
L 313.895041 186.876037 
L 317.481818 177.404697 
L 321.068595 167.942344 
L 324.655372 158.569531 
L 328.242149 149.3644 
L 331.828926 140.401918 
L 335.415702 131.753169 
L 339.002479 123.48471 
L 342.589256 115.658009 
L 346.176033 108.328949 
L 349.76281 101.547424 
L 353.349587 95.357017 
L 356.936364 89.794758 
L 360.52314 84.89098 
L 364.109917 80.669248 
L 367.696694 77.146377 
L 371.283471 74.332526 
L 374.870248 72.231366 
L 378.457025 70.840319 
L 382.043802 70.150851 
L 385.630579 70.148831 
L 389.217355 70.814931 
L 392.804132 72.125066 
L 396.390909 74.05087 
L 399.977686 76.56019 
L 403.564463 79.617606 
L 407.15124 83.184951 
L 410.738017 87.221835 
L 414.324793 91.686169 
L 417.91157 96.534667 
L 421.498347 101.72334 
L 425.085124 107.207962 
L 428.671901 112.94451 
L 432.258678 118.889574 
L 435.845455 125.000728 
" clip-path="url(#p5612a28c65)" style="fill: none; stroke: #000000; stroke-width: 2; stroke-linecap: square"/>
   </g>
  </g>
 </g>
 <defs>
  <clipPath id="p5612a28c65">
   <rect x="63" y="38.88" width="390.6" height="249.48"/>
  </clipPath>
 </defs>
</svg>
