<?xml version="1.0" encoding="utf-8" standalone="no"?>
<!DOCTYPE svg PUBLIC "-//W3C//DTD SVG 1.1//EN"
  "http://www.w3.org/Graphics/SVG/1.1/DTD/svg11.dtd">
<svg xmlns:xlink="http://www.w3.org/1999/xlink" width="468pt" height="468pt" viewBox="0 0 468 468" xmlns="http://www.w3.org/2000/svg" version="1.1">
 <metadata>
  <rdf:RDF xmlns:dc="http://purl.org/dc/elements/1.1/" xmlns:cc="http://creativecommons.org/ns#" xmlns:rdf="http://www.w3.org/1999/02/22-rdf-syntax-ns#">
   <cc:Work>
    <dc:type rdf:resource="http://purl.org/dc/dcmitype/StillImage"/>
    <dc:date>2023-06-02T00:41:15.982713</dc:date>
    <dc:format>image/svg+xml</dc:format>
    <dc:creator>
     <cc:Agent>
      <dc:title>Matplotlib v3.7.1, https://matplotlib.org/</dc:title>
     </cc:Agent>
    </dc:creator>
   </cc:Work>
  </rdf:RDF>
 </metadata>
 <defs>
  <style type="text/css">*{stroke-linejoin: round; stroke-linecap: butt}</style>
 </defs>
 <g id="figure_1">
  <g id="patch_1">
   <path d="M 0 468 
L 468 468 
L 468 0 
L 0 0 
z
" style="fill: #ffffff"/>
  </g>
  <g id="axes_1">
   <g id="patch_2">
    <path d="M 33.73 211.738 
L 225.405 211.738 
L 225.405 27.816 
L 33.73 27.816 
z
" style="fill: #ffffff"/>
   </g>
   <g id="matplotlib.axis_1">
    <g id="xtick_1">
     <g id="line2d_1">
      <path d="M 42.4425 211.738 
L 42.4425 27.816 
" clip-path="url(#pf2e41d71e4)" style="fill: none; stroke-dasharray: 0.5,0.825; stroke-dashoffset: 0; stroke: #000000; stroke-opacity: 0.3; stroke-width: 0.5"/>
     </g>
     <g id="line2d_2">
      <defs>
       <path id="mfa1135a3cb" d="M 0 0 
L 0 3.5 
" style="stroke: #000000; stroke-width: 0.8"/>
      </defs>
      <g>
       <use xlink:href="#mfa1135a3cb" x="42.4425" y="211.738" style="stroke: #000000; stroke-width: 0.8"/>
      </g>
     </g>
    </g>
    <g id="xtick_2">
     <g id="line2d_3">
      <path d="M 86.005 211.738 
L 86.005 27.816 
" clip-path="url(#pf2e41d71e4)" style="fill: none; stroke-dasharray: 0.5,0.825; stroke-dashoffset: 0; stroke: #000000; stroke-opacity: 0.3; stroke-width: 0.5"/>
     </g>
     <g id="line2d_4">
      <g>
       <use xlink:href="#mfa1135a3cb" x="86.005" y="211.738" style="stroke: #000000; stroke-width: 0.8"/>
      </g>
     </g>
    </g>
    <g id="xtick_3">
     <g id="line2d_5">
      <path d="M 129.5675 211.738 
L 129.5675 27.816 
" clip-path="url(#pf2e41d71e4)" style="fill: none; stroke-dasharray: 0.5,0.825; stroke-dashoffset: 0; stroke: #000000; stroke-opacity: 0.3; stroke-width: 0.5"/>
     </g>
     <g id="line2d_6">
      <g>
       <use xlink:href="#mfa1135a3cb" x="129.5675" y="211.738" style="stroke: #000000; stroke-width: 0.8"/>
      </g>
     </g>
    </g>
    <g id="xtick_4">
     <g id="line2d_7">
      <path d="M 173.13 211.738 
L 173.13 27.816 
" clip-path="url(#pf2e41d71e4)" style="fill: none; stroke-dasharray: 0.5,0.825; stroke-dashoffset: 0; stroke: #000000; stroke-opacity: 0.3; stroke-width: 0.5"/>
     </g>
     <g id="line2d_8">
      <g>
       <use xlink:href="#mfa1135a3cb" x="173.13" y="211.738" style="stroke: #000000; stroke-width: 0.8"/>
      </g>
     </g>
    </g>
    <g id="xtick_5">
     <g id="line2d_9">
      <path d="M 216.6925 211.738 
L 216.6925 27.816 
" clip-path="url(#pf2e41d71e4)" style="fill: none; stroke-dasharray: 0.5,0.825; stroke-dashoffset: 0; stroke: #000000; stroke-opacity: 0.3; stroke-width: 0.5"/>
     </g>
     <g id="line2d_10">
      <g>
       <use xlink:href="#mfa1135a3cb" x="216.6925" y="211.738" style="stroke: #000000; stroke-width: 0.8"/>
      </g>
     </g>
    </g>
   </g>
   <g id="matplotlib.axis_2">
    <g id="ytick_1">
     <g id="line2d_11">
      <path d="M 33.73 203.377909 
L 225.405 203.377909 
" clip-path="url(#pf2e41d71e4)" style="fill: none; stroke-dasharray: 0.5,0.825; stroke-dashoffset: 0; stroke: #000000; stroke-opacity: 0.3; stroke-width: 0.5"/>
     </g>
     <g id="line2d_12">
      <defs>
       <path id="m253c34ce2e" d="M 0 0 
L -3.5 0 
" style="stroke: #000000; stroke-width: 0.8"/>
      </defs>
      <g>
       <use xlink:href="#m253c34ce2e" x="33.73" y="203.377909" style="stroke: #000000; stroke-width: 0.8"/>
      </g>
     </g>
     <g id="text_1">
      <!-- 0 -->
      <g transform="translate(20.3675 207.177128) scale(0.1 -0.1)">
       <defs>
        <path id="DejaVuSans-30" d="M 2034 4250 
Q 1547 4250 1301 3770 
Q 1056 3291 1056 2328 
Q 1056 1369 1301 889 
Q 1547 409 2034 409 
Q 2525 409 2770 889 
Q 3016 1369 3016 2328 
Q 3016 3291 2770 3770 
Q 2525 4250 2034 4250 
z
M 2034 4750 
Q 2819 4750 3233 4129 
Q 3647 3509 3647 2328 
Q 3647 1150 3233 529 
Q 2819 -91 2034 -91 
Q 1250 -91 836 529 
Q 422 1150 422 2328 
Q 422 3509 836 4129 
Q 1250 4750 2034 4750 
z
" transform="scale(0.015625)"/>
       </defs>
       <use xlink:href="#DejaVuSans-30"/>
      </g>
     </g>
    </g>
    <g id="ytick_2">
     <g id="line2d_13">
      <path d="M 33.73 162.691248 
L 225.405 162.691248 
" clip-path="url(#pf2e41d71e4)" style="fill: none; stroke-dasharray: 0.5,0.825; stroke-dashoffset: 0; stroke: #000000; stroke-opacity: 0.3; stroke-width: 0.5"/>
     </g>
     <g id="line2d_14">
      <g>
       <use xlink:href="#m253c34ce2e" x="33.73" y="162.691248" style="stroke: #000000; stroke-width: 0.8"/>
      </g>
     </g>
     <g id="text_2">
      <!-- 5 -->
      <g transform="translate(20.3675 166.490467) scale(0.1 -0.1)">
       <defs>
        <path id="DejaVuSans-35" d="M 691 4666 
L 3169 4666 
L 3169 4134 
L 1269 4134 
L 1269 2991 
Q 1406 3038 1543 3061 
Q 1681 3084 1819 3084 
Q 2600 3084 3056 2656 
Q 3513 2228 3513 1497 
Q 3513 744 3044 326 
Q 2575 -91 1722 -91 
Q 1428 -91 1123 -41 
Q 819 9 494 109 
L 494 744 
Q 775 591 1075 516 
Q 1375 441 1709 441 
Q 2250 441 2565 725 
Q 2881 1009 2881 1497 
Q 2881 1984 2565 2268 
Q 2250 2553 1709 2553 
Q 1456 2553 1204 2497 
Q 953 2441 691 2322 
L 691 4666 
z
" transform="scale(0.015625)"/>
       </defs>
       <use xlink:href="#DejaVuSans-35"/>
      </g>
     </g>
    </g>
    <g id="ytick_3">
     <g id="line2d_15">
      <path d="M 33.73 122.004587 
L 225.405 122.004587 
" clip-path="url(#pf2e41d71e4)" style="fill: none; stroke-dasharray: 0.5,0.825; stroke-dashoffset: 0; stroke: #000000; stroke-opacity: 0.3; stroke-width: 0.5"/>
     </g>
     <g id="line2d_16">
      <g>
       <use xlink:href="#m253c34ce2e" x="33.73" y="122.004587" style="stroke: #000000; stroke-width: 0.8"/>
      </g>
     </g>
     <g id="text_3">
      <!-- 10 -->
      <g transform="translate(14.005 125.803805) scale(0.1 -0.1)">
       <defs>
        <path id="DejaVuSans-31" d="M 794 531 
L 1825 531 
L 1825 4091 
L 703 3866 
L 703 4441 
L 1819 4666 
L 2450 4666 
L 2450 531 
L 3481 531 
L 3481 0 
L 794 0 
L 794 531 
z
" transform="scale(0.015625)"/>
       </defs>
       <use xlink:href="#DejaVuSans-31"/>
       <use xlink:href="#DejaVuSans-30" x="63.623047"/>
      </g>
     </g>
    </g>
    <g id="ytick_4">
     <g id="line2d_17">
      <path d="M 33.73 81.317925 
L 225.405 81.317925 
" clip-path="url(#pf2e41d71e4)" style="fill: none; stroke-dasharray: 0.5,0.825; stroke-dashoffset: 0; stroke: #000000; stroke-opacity: 0.3; stroke-width: 0.5"/>
     </g>
     <g id="line2d_18">
      <g>
       <use xlink:href="#m253c34ce2e" x="33.73" y="81.317925" style="stroke: #000000; stroke-width: 0.8"/>
      </g>
     </g>
     <g id="text_4">
      <!-- 15 -->
      <g transform="translate(14.005 85.117144) scale(0.1 -0.1)">
       <use xlink:href="#DejaVuSans-31"/>
       <use xlink:href="#DejaVuSans-35" x="63.623047"/>
      </g>
     </g>
    </g>
    <g id="ytick_5">
     <g id="line2d_19">
      <path d="M 33.73 40.631264 
L 225.405 40.631264 
" clip-path="url(#pf2e41d71e4)" style="fill: none; stroke-dasharray: 0.5,0.825; stroke-dashoffset: 0; stroke: #000000; stroke-opacity: 0.3; stroke-width: 0.5"/>
     </g>
     <g id="line2d_20">
      <g>
       <use xlink:href="#m253c34ce2e" x="33.73" y="40.631264" style="stroke: #000000; stroke-width: 0.8"/>
      </g>
     </g>
     <g id="text_5">
      <!-- 20 -->
      <g transform="translate(14.005 44.430483) scale(0.1 -0.1)">
       <defs>
        <path id="DejaVuSans-32" d="M 1228 531 
L 3431 531 
L 3431 0 
L 469 0 
L 469 531 
Q 828 903 1448 1529 
Q 2069 2156 2228 2338 
Q 2531 2678 2651 2914 
Q 2772 3150 2772 3378 
Q 2772 3750 2511 3984 
Q 2250 4219 1831 4219 
Q 1534 4219 1204 4116 
Q 875 4013 500 3803 
L 500 4441 
Q 881 4594 1212 4672 
Q 1544 4750 1819 4750 
Q 2544 4750 2975 4387 
Q 3406 4025 3406 3419 
Q 3406 3131 3298 2873 
Q 3191 2616 2906 2266 
Q 2828 2175 2409 1742 
Q 1991 1309 1228 531 
z
" transform="scale(0.015625)"/>
       </defs>
       <use xlink:href="#DejaVuSans-32"/>
       <use xlink:href="#DejaVuSans-30" x="63.623047"/>
      </g>
     </g>
    </g>
   </g>
   <g id="line2d_21">
    <path d="M 42.4425 203.377909 
L 43.192219 202.960902 
L 44.421019 201.996871 
L 45.932842 200.733066 
L 47.663843 199.243471 
L 49.578524 197.567485 
L 51.653569 195.730386 
L 53.872218 193.749921 
L 56.221708 191.639631 
L 58.691917 189.410264 
L 61.274579 187.070382 
L 63.962786 184.627111 
L 66.750656 182.086492 
L 69.633111 179.453729 
L 72.605708 176.733356 
L 75.66452 173.929372 
L 78.806048 171.045333 
L 82.027146 168.084428 
L 85.324969 165.049535 
L 88.696928 161.943269 
L 92.140655 158.768017 
L 95.653974 155.525969 
L 99.234875 152.219144 
L 102.881497 148.84941 
L 106.592109 145.418499 
L 110.365098 141.928026 
L 114.198953 138.3795 
L 118.092258 134.774333 
L 122.043682 131.113852 
L 126.05197 127.399305 
L 130.115937 123.631869 
L 134.234461 119.812659 
L 138.406478 115.942728 
L 142.630981 112.023076 
L 146.907007 108.054656 
L 151.233642 104.03837 
L 155.610014 99.975082 
L 160.035288 95.865617 
L 164.508668 91.710763 
L 169.029388 87.511272 
L 173.596718 83.267873 
L 178.209954 78.981258 
L 182.868421 74.652099 
L 187.57147 70.281037 
L 192.318475 65.868704 
L 197.108835 61.415675 
L 201.941968 56.922608 
L 206.817315 52.389849 
L 211.734333 47.818644 
L 216.6925 43.207144 
" clip-path="url(#pf2e41d71e4)" style="fill: none; stroke: #1f77b4; stroke-opacity: 0.7; stroke-width: 2; stroke-linecap: square"/>
   </g>
   <g id="line2d_22">
    <path d="M 42.4425 202.626109 
L 43.192219 201.967419 
L 44.421019 200.873644 
L 45.932842 199.516717 
L 47.663843 197.954782 
L 49.578524 196.220004 
L 51.653569 194.333707 
L 53.872218 192.311436 
L 56.221708 190.165099 
L 58.691917 187.904199 
L 61.274579 185.536533 
L 63.962786 183.068641 
L 66.750656 180.506109 
L 69.633111 177.853773 
L 72.605708 175.115872 
L 75.66452 172.296159 
L 78.806048 169.397986 
L 82.027146 166.424368 
L 85.324969 163.378036 
L 88.696928 160.261476 
L 92.140655 157.076966 
L 95.653974 153.826601 
L 99.234875 150.512315 
L 102.881497 147.135903 
L 106.592109 143.699032 
L 110.365098 140.203261 
L 114.198953 136.650048 
L 118.092258 133.040761 
L 122.043682 129.376689 
L 126.05197 125.659046 
L 130.115937 121.888982 
L 134.234461 118.067584 
L 138.406478 114.195888 
L 142.630981 110.274876 
L 146.907007 106.305487 
L 151.233642 102.288616 
L 155.610014 98.225123 
L 160.035288 94.115829 
L 164.508668 89.961527 
L 169.029388 85.762977 
L 173.596718 81.520917 
L 178.209954 77.236058 
L 182.868421 72.909094 
L 187.57147 68.540694 
L 192.318475 64.131529 
L 197.108835 59.682219 
L 201.941968 55.193456 
L 206.817315 50.665754 
L 211.734333 46.100002 
L 216.6925 41.496268 
" clip-path="url(#pf2e41d71e4)" style="fill: none; stroke: #ff7f0e; stroke-opacity: 0.7; stroke-width: 2; stroke-linecap: square"/>
   </g>
   <g id="line2d_23">
    <path d="M 42.4425 197.252639 
L 43.192219 196.563374 
L 44.421019 195.433621 
L 45.932842 194.042575 
L 47.663843 192.448641 
L 49.578524 190.684774 
L 51.653569 188.772226 
L 53.872218 186.726293 
L 56.221708 184.558598 
L 58.691917 182.278059 
L 61.274579 179.89274 
L 63.962786 177.408998 
L 66.750656 174.832261 
L 69.633111 172.167226 
L 72.605708 169.41801 
L 75.66452 166.588261 
L 78.806048 163.681242 
L 82.027146 160.699887 
L 85.324969 157.646862 
L 88.696928 154.524597 
L 92.140655 151.335322 
L 95.653974 148.081094 
L 99.234875 144.763817 
L 102.881497 141.385263 
L 106.592109 137.947089 
L 110.365098 134.450845 
L 114.198953 130.897964 
L 118.092258 127.289742 
L 122.043682 123.627599 
L 126.05197 119.912775 
L 130.115937 116.146453 
L 134.234461 112.329771 
L 138.406478 108.463817 
L 142.630981 104.549645 
L 146.907007 100.588275 
L 151.233642 96.580699 
L 155.610014 92.527892 
L 160.035288 88.430812 
L 164.508668 84.290409 
L 169.029388 80.107629 
L 173.596718 75.883426 
L 178.209954 71.618765 
L 182.868421 67.314642 
L 187.57147 62.972078 
L 192.318475 58.592158 
L 197.108835 54.176019 
L 201.941968 49.724921 
L 206.817315 45.240183 
L 211.734333 40.723421 
L 216.6925 36.176091 
" clip-path="url(#pf2e41d71e4)" style="fill: none; stroke: #2ca02c; stroke-opacity: 0.7; stroke-width: 2; stroke-linecap: square"/>
   </g>
   <g id="patch_3">
    <path d="M 33.73 211.738 
L 33.73 27.816 
" style="fill: none; stroke: #000000; stroke-width: 0.8; stroke-linejoin: miter; stroke-linecap: square"/>
   </g>
   <g id="patch_4">
    <path d="M 225.405 211.738 
L 225.405 27.816 
" style="fill: none; stroke: #000000; stroke-width: 0.8; stroke-linejoin: miter; stroke-linecap: square"/>
   </g>
   <g id="patch_5">
    <path d="M 33.73 211.738 
L 225.405 211.738 
" style="fill: none; stroke: #000000; stroke-width: 0.8; stroke-linejoin: miter; stroke-linecap: square"/>
   </g>
   <g id="patch_6">
    <path d="M 33.73 27.816 
L 225.405 27.816 
" style="fill: none; stroke: #000000; stroke-width: 0.8; stroke-linejoin: miter; stroke-linecap: square"/>
   </g>
   <g id="text_6">
    <!-- Savings $a^{\prime}$ -->
    <g transform="translate(98.9075 21.816) scale(0.12 -0.12)">
     <defs>
      <path id="DejaVuSans-53" d="M 3425 4513 
L 3425 3897 
Q 3066 4069 2747 4153 
Q 2428 4238 2131 4238 
Q 1616 4238 1336 4038 
Q 1056 3838 1056 3469 
Q 1056 3159 1242 3001 
Q 1428 2844 1947 2747 
L 2328 2669 
Q 3034 2534 3370 2195 
Q 3706 1856 3706 1288 
Q 3706 609 3251 259 
Q 2797 -91 1919 -91 
Q 1588 -91 1214 -16 
Q 841 59 441 206 
L 441 856 
Q 825 641 1194 531 
Q 1563 422 1919 422 
Q 2459 422 2753 634 
Q 3047 847 3047 1241 
Q 3047 1584 2836 1778 
Q 2625 1972 2144 2069 
L 1759 2144 
Q 1053 2284 737 2584 
Q 422 2884 422 3419 
Q 422 4038 858 4394 
Q 1294 4750 2059 4750 
Q 2388 4750 2728 4690 
Q 3069 4631 3425 4513 
z
" transform="scale(0.015625)"/>
      <path id="DejaVuSans-61" d="M 2194 1759 
Q 1497 1759 1228 1600 
Q 959 1441 959 1056 
Q 959 750 1161 570 
Q 1363 391 1709 391 
Q 2188 391 2477 730 
Q 2766 1069 2766 1631 
L 2766 1759 
L 2194 1759 
z
M 3341 1997 
L 3341 0 
L 2766 0 
L 2766 531 
Q 2569 213 2275 61 
Q 1981 -91 1556 -91 
Q 1019 -91 701 211 
Q 384 513 384 1019 
Q 384 1609 779 1909 
Q 1175 2209 1959 2209 
L 2766 2209 
L 2766 2266 
Q 2766 2663 2505 2880 
Q 2244 3097 1772 3097 
Q 1472 3097 1187 3025 
Q 903 2953 641 2809 
L 641 3341 
Q 956 3463 1253 3523 
Q 1550 3584 1831 3584 
Q 2591 3584 2966 3190 
Q 3341 2797 3341 1997 
z
" transform="scale(0.015625)"/>
      <path id="DejaVuSans-76" d="M 191 3500 
L 800 3500 
L 1894 563 
L 2988 3500 
L 3597 3500 
L 2284 0 
L 1503 0 
L 191 3500 
z
" transform="scale(0.015625)"/>
      <path id="DejaVuSans-69" d="M 603 3500 
L 1178 3500 
L 1178 0 
L 603 0 
L 603 3500 
z
M 603 4863 
L 1178 4863 
L 1178 4134 
L 603 4134 
L 603 4863 
z
" transform="scale(0.015625)"/>
      <path id="DejaVuSans-6e" d="M 3513 2113 
L 3513 0 
L 2938 0 
L 2938 2094 
Q 2938 2591 2744 2837 
Q 2550 3084 2163 3084 
Q 1697 3084 1428 2787 
Q 1159 2491 1159 1978 
L 1159 0 
L 581 0 
L 581 3500 
L 1159 3500 
L 1159 2956 
Q 1366 3272 1645 3428 
Q 1925 3584 2291 3584 
Q 2894 3584 3203 3211 
Q 3513 2838 3513 2113 
z
" transform="scale(0.015625)"/>
      <path id="DejaVuSans-67" d="M 2906 1791 
Q 2906 2416 2648 2759 
Q 2391 3103 1925 3103 
Q 1463 3103 1205 2759 
Q 947 2416 947 1791 
Q 947 1169 1205 825 
Q 1463 481 1925 481 
Q 2391 481 2648 825 
Q 2906 1169 2906 1791 
z
M 3481 434 
Q 3481 -459 3084 -895 
Q 2688 -1331 1869 -1331 
Q 1566 -1331 1297 -1286 
Q 1028 -1241 775 -1147 
L 775 -588 
Q 1028 -725 1275 -790 
Q 1522 -856 1778 -856 
Q 2344 -856 2625 -561 
Q 2906 -266 2906 331 
L 2906 616 
Q 2728 306 2450 153 
Q 2172 0 1784 0 
Q 1141 0 747 490 
Q 353 981 353 1791 
Q 353 2603 747 3093 
Q 1141 3584 1784 3584 
Q 2172 3584 2450 3431 
Q 2728 3278 2906 2969 
L 2906 3500 
L 3481 3500 
L 3481 434 
z
" transform="scale(0.015625)"/>
      <path id="DejaVuSans-73" d="M 2834 3397 
L 2834 2853 
Q 2591 2978 2328 3040 
Q 2066 3103 1784 3103 
Q 1356 3103 1142 2972 
Q 928 2841 928 2578 
Q 928 2378 1081 2264 
Q 1234 2150 1697 2047 
L 1894 2003 
Q 2506 1872 2764 1633 
Q 3022 1394 3022 966 
Q 3022 478 2636 193 
Q 2250 -91 1575 -91 
Q 1294 -91 989 -36 
Q 684 19 347 128 
L 347 722 
Q 666 556 975 473 
Q 1284 391 1588 391 
Q 1994 391 2212 530 
Q 2431 669 2431 922 
Q 2431 1156 2273 1281 
Q 2116 1406 1581 1522 
L 1381 1569 
Q 847 1681 609 1914 
Q 372 2147 372 2553 
Q 372 3047 722 3315 
Q 1072 3584 1716 3584 
Q 2034 3584 2315 3537 
Q 2597 3491 2834 3397 
z
" transform="scale(0.015625)"/>
      <path id="DejaVuSans-20" transform="scale(0.015625)"/>
      <path id="DejaVuSans-Oblique-61" d="M 3438 1997 
L 3047 0 
L 2472 0 
L 2578 531 
Q 2325 219 2001 64 
Q 1678 -91 1281 -91 
Q 834 -91 548 182 
Q 263 456 263 884 
Q 263 1497 752 1853 
Q 1241 2209 2100 2209 
L 2900 2209 
L 2931 2363 
Q 2938 2388 2941 2417 
Q 2944 2447 2944 2509 
Q 2944 2788 2717 2942 
Q 2491 3097 2081 3097 
Q 1800 3097 1504 3025 
Q 1209 2953 897 2809 
L 997 3341 
Q 1322 3463 1633 3523 
Q 1944 3584 2234 3584 
Q 2853 3584 3176 3315 
Q 3500 3047 3500 2534 
Q 3500 2431 3484 2292 
Q 3469 2153 3438 1997 
z
M 2816 1759 
L 2241 1759 
Q 1534 1759 1195 1570 
Q 856 1381 856 984 
Q 856 709 1029 553 
Q 1203 397 1509 397 
Q 1978 397 2328 733 
Q 2678 1069 2791 1631 
L 2816 1759 
z
" transform="scale(0.015625)"/>
      <path id="Cmsy10-30" d="M 225 347 
Q 184 359 184 409 
L 966 3316 
Q 1003 3434 1093 3506 
Q 1184 3578 1300 3578 
Q 1450 3578 1564 3479 
Q 1678 3381 1678 3231 
Q 1678 3166 1644 3084 
L 488 319 
Q 466 275 428 275 
Q 394 275 320 306 
Q 247 338 225 347 
z
" transform="scale(0.015625)"/>
     </defs>
     <use xlink:href="#DejaVuSans-53" transform="translate(0 0.584375)"/>
     <use xlink:href="#DejaVuSans-61" transform="translate(63.476562 0.584375)"/>
     <use xlink:href="#DejaVuSans-76" transform="translate(124.755859 0.584375)"/>
     <use xlink:href="#DejaVuSans-69" transform="translate(183.935547 0.584375)"/>
     <use xlink:href="#DejaVuSans-6e" transform="translate(211.71875 0.584375)"/>
     <use xlink:href="#DejaVuSans-67" transform="translate(275.097656 0.584375)"/>
     <use xlink:href="#DejaVuSans-73" transform="translate(338.574219 0.584375)"/>
     <use xlink:href="#DejaVuSans-20" transform="translate(390.673828 0.584375)"/>
     <use xlink:href="#DejaVuSans-Oblique-61" transform="translate(422.460938 0.584375)"/>
     <use xlink:href="#Cmsy10-30" transform="translate(488.39013 38.865625) scale(0.7)"/>
    </g>
   </g>
   <g id="legend_1">
    <g id="patch_7">
     <path d="M 40.73 79.911312 
L 113.23 79.911312 
Q 115.23 79.911312 115.23 77.911312 
L 115.23 34.816 
Q 115.23 32.816 113.23 32.816 
L 40.73 32.816 
Q 38.73 32.816 38.73 34.816 
L 38.73 77.911312 
Q 38.73 79.911312 40.73 79.911312 
z
" style="fill: #ffffff; opacity: 0.8; stroke: #cccccc; stroke-linejoin: miter"/>
    </g>
    <g id="line2d_24">
     <path d="M 42.73 40.914437 
L 52.73 40.914437 
L 62.73 40.914437 
" style="fill: none; stroke: #1f77b4; stroke-opacity: 0.7; stroke-width: 2; stroke-linecap: square"/>
    </g>
    <g id="text_7">
     <!-- $y=0.33$ -->
     <g transform="translate(70.73 44.414437) scale(0.1 -0.1)">
      <defs>
       <path id="DejaVuSans-Oblique-79" d="M 1588 -325 
Q 1188 -997 936 -1164 
Q 684 -1331 294 -1331 
L -159 -1331 
L -63 -850 
L 269 -850 
Q 509 -850 678 -719 
Q 847 -588 1056 -206 
L 1234 128 
L 459 3500 
L 1069 3500 
L 1650 819 
L 3256 3500 
L 3859 3500 
L 1588 -325 
z
" transform="scale(0.015625)"/>
       <path id="DejaVuSans-3d" d="M 678 2906 
L 4684 2906 
L 4684 2381 
L 678 2381 
L 678 2906 
z
M 678 1631 
L 4684 1631 
L 4684 1100 
L 678 1100 
L 678 1631 
z
" transform="scale(0.015625)"/>
       <path id="DejaVuSans-2e" d="M 684 794 
L 1344 794 
L 1344 0 
L 684 0 
L 684 794 
z
" transform="scale(0.015625)"/>
       <path id="DejaVuSans-33" d="M 2597 2516 
Q 3050 2419 3304 2112 
Q 3559 1806 3559 1356 
Q 3559 666 3084 287 
Q 2609 -91 1734 -91 
Q 1441 -91 1130 -33 
Q 819 25 488 141 
L 488 750 
Q 750 597 1062 519 
Q 1375 441 1716 441 
Q 2309 441 2620 675 
Q 2931 909 2931 1356 
Q 2931 1769 2642 2001 
Q 2353 2234 1838 2234 
L 1294 2234 
L 1294 2753 
L 1863 2753 
Q 2328 2753 2575 2939 
Q 2822 3125 2822 3475 
Q 2822 3834 2567 4026 
Q 2313 4219 1838 4219 
Q 1578 4219 1281 4162 
Q 984 4106 628 3988 
L 628 4550 
Q 988 4650 1302 4700 
Q 1616 4750 1894 4750 
Q 2613 4750 3031 4423 
Q 3450 4097 3450 3541 
Q 3450 3153 3228 2886 
Q 3006 2619 2597 2516 
z
" transform="scale(0.015625)"/>
      </defs>
      <use xlink:href="#DejaVuSans-Oblique-79" transform="translate(0 0.78125)"/>
      <use xlink:href="#DejaVuSans-3d" transform="translate(78.662109 0.78125)"/>
      <use xlink:href="#DejaVuSans-30" transform="translate(181.933594 0.78125)"/>
      <use xlink:href="#DejaVuSans-2e" transform="translate(245.556641 0.78125)"/>
      <use xlink:href="#DejaVuSans-33" transform="translate(277.34375 0.78125)"/>
      <use xlink:href="#DejaVuSans-33" transform="translate(340.966797 0.78125)"/>
     </g>
    </g>
    <g id="line2d_25">
     <path d="M 42.73 55.612875 
L 52.73 55.612875 
L 62.73 55.612875 
" style="fill: none; stroke: #ff7f0e; stroke-opacity: 0.7; stroke-width: 2; stroke-linecap: square"/>
    </g>
    <g id="text_8">
     <!-- $y=0.82$ -->
     <g transform="translate(70.73 59.112875) scale(0.1 -0.1)">
      <defs>
       <path id="DejaVuSans-38" d="M 2034 2216 
Q 1584 2216 1326 1975 
Q 1069 1734 1069 1313 
Q 1069 891 1326 650 
Q 1584 409 2034 409 
Q 2484 409 2743 651 
Q 3003 894 3003 1313 
Q 3003 1734 2745 1975 
Q 2488 2216 2034 2216 
z
M 1403 2484 
Q 997 2584 770 2862 
Q 544 3141 544 3541 
Q 544 4100 942 4425 
Q 1341 4750 2034 4750 
Q 2731 4750 3128 4425 
Q 3525 4100 3525 3541 
Q 3525 3141 3298 2862 
Q 3072 2584 2669 2484 
Q 3125 2378 3379 2068 
Q 3634 1759 3634 1313 
Q 3634 634 3220 271 
Q 2806 -91 2034 -91 
Q 1263 -91 848 271 
Q 434 634 434 1313 
Q 434 1759 690 2068 
Q 947 2378 1403 2484 
z
M 1172 3481 
Q 1172 3119 1398 2916 
Q 1625 2713 2034 2713 
Q 2441 2713 2670 2916 
Q 2900 3119 2900 3481 
Q 2900 3844 2670 4047 
Q 2441 4250 2034 4250 
Q 1625 4250 1398 4047 
Q 1172 3844 1172 3481 
z
" transform="scale(0.015625)"/>
      </defs>
      <use xlink:href="#DejaVuSans-Oblique-79" transform="translate(0 0.78125)"/>
      <use xlink:href="#DejaVuSans-3d" transform="translate(78.662109 0.78125)"/>
      <use xlink:href="#DejaVuSans-30" transform="translate(181.933594 0.78125)"/>
      <use xlink:href="#DejaVuSans-2e" transform="translate(245.556641 0.78125)"/>
      <use xlink:href="#DejaVuSans-38" transform="translate(274.71875 0.78125)"/>
      <use xlink:href="#DejaVuSans-32" transform="translate(338.341797 0.78125)"/>
     </g>
    </g>
    <g id="line2d_26">
     <path d="M 42.73 70.311312 
L 52.73 70.311312 
L 62.73 70.311312 
" style="fill: none; stroke: #2ca02c; stroke-opacity: 0.7; stroke-width: 2; stroke-linecap: square"/>
    </g>
    <g id="text_9">
     <!-- $y=2.03$ -->
     <g transform="translate(70.73 73.811312) scale(0.1 -0.1)">
      <use xlink:href="#DejaVuSans-Oblique-79" transform="translate(0 0.78125)"/>
      <use xlink:href="#DejaVuSans-3d" transform="translate(78.662109 0.78125)"/>
      <use xlink:href="#DejaVuSans-32" transform="translate(181.933594 0.78125)"/>
      <use xlink:href="#DejaVuSans-2e" transform="translate(245.556641 0.78125)"/>
      <use xlink:href="#DejaVuSans-30" transform="translate(277.34375 0.78125)"/>
      <use xlink:href="#DejaVuSans-33" transform="translate(340.966797 0.78125)"/>
     </g>
    </g>
   </g>
  </g>
  <g id="axes_2">
   <g id="patch_8">
    <path d="M 265.525 211.738 
L 457.2 211.738 
L 457.2 27.816 
L 265.525 27.816 
z
" style="fill: #ffffff"/>
   </g>
   <g id="matplotlib.axis_3">
    <g id="xtick_6">
     <g id="line2d_27">
      <path d="M 274.2375 211.738 
L 274.2375 27.816 
" clip-path="url(#pcb5a444d65)" style="fill: none; stroke-dasharray: 0.5,0.825; stroke-dashoffset: 0; stroke: #000000; stroke-opacity: 0.3; stroke-width: 0.5"/>
     </g>
     <g id="line2d_28">
      <g>
       <use xlink:href="#mfa1135a3cb" x="274.2375" y="211.738" style="stroke: #000000; stroke-width: 0.8"/>
      </g>
     </g>
    </g>
    <g id="xtick_7">
     <g id="line2d_29">
      <path d="M 317.8 211.738 
L 317.8 27.816 
" clip-path="url(#pcb5a444d65)" style="fill: none; stroke-dasharray: 0.5,0.825; stroke-dashoffset: 0; stroke: #000000; stroke-opacity: 0.3; stroke-width: 0.5"/>
     </g>
     <g id="line2d_30">
      <g>
       <use xlink:href="#mfa1135a3cb" x="317.8" y="211.738" style="stroke: #000000; stroke-width: 0.8"/>
      </g>
     </g>
    </g>
    <g id="xtick_8">
     <g id="line2d_31">
      <path d="M 361.3625 211.738 
L 361.3625 27.816 
" clip-path="url(#pcb5a444d65)" style="fill: none; stroke-dasharray: 0.5,0.825; stroke-dashoffset: 0; stroke: #000000; stroke-opacity: 0.3; stroke-width: 0.5"/>
     </g>
     <g id="line2d_32">
      <g>
       <use xlink:href="#mfa1135a3cb" x="361.3625" y="211.738" style="stroke: #000000; stroke-width: 0.8"/>
      </g>
     </g>
    </g>
    <g id="xtick_9">
     <g id="line2d_33">
      <path d="M 404.925 211.738 
L 404.925 27.816 
" clip-path="url(#pcb5a444d65)" style="fill: none; stroke-dasharray: 0.5,0.825; stroke-dashoffset: 0; stroke: #000000; stroke-opacity: 0.3; stroke-width: 0.5"/>
     </g>
     <g id="line2d_34">
      <g>
       <use xlink:href="#mfa1135a3cb" x="404.925" y="211.738" style="stroke: #000000; stroke-width: 0.8"/>
      </g>
     </g>
    </g>
    <g id="xtick_10">
     <g id="line2d_35">
      <path d="M 448.4875 211.738 
L 448.4875 27.816 
" clip-path="url(#pcb5a444d65)" style="fill: none; stroke-dasharray: 0.5,0.825; stroke-dashoffset: 0; stroke: #000000; stroke-opacity: 0.3; stroke-width: 0.5"/>
     </g>
     <g id="line2d_36">
      <g>
       <use xlink:href="#mfa1135a3cb" x="448.4875" y="211.738" style="stroke: #000000; stroke-width: 0.8"/>
      </g>
     </g>
    </g>
   </g>
   <g id="matplotlib.axis_4">
    <g id="ytick_6">
     <g id="line2d_37">
      <path d="M 265.525 208.218476 
L 457.2 208.218476 
" clip-path="url(#pcb5a444d65)" style="fill: none; stroke-dasharray: 0.5,0.825; stroke-dashoffset: 0; stroke: #000000; stroke-opacity: 0.3; stroke-width: 0.5"/>
     </g>
     <g id="line2d_38">
      <g>
       <use xlink:href="#m253c34ce2e" x="265.525" y="208.218476" style="stroke: #000000; stroke-width: 0.8"/>
      </g>
     </g>
     <g id="text_10">
      <!-- 0.25 -->
      <g transform="translate(236.259375 212.017695) scale(0.1 -0.1)">
       <use xlink:href="#DejaVuSans-30"/>
       <use xlink:href="#DejaVuSans-2e" x="63.623047"/>
       <use xlink:href="#DejaVuSans-32" x="95.410156"/>
       <use xlink:href="#DejaVuSans-35" x="159.033203"/>
      </g>
     </g>
    </g>
    <g id="ytick_7">
     <g id="line2d_39">
      <path d="M 265.525 184.634584 
L 457.2 184.634584 
" clip-path="url(#pcb5a444d65)" style="fill: none; stroke-dasharray: 0.5,0.825; stroke-dashoffset: 0; stroke: #000000; stroke-opacity: 0.3; stroke-width: 0.5"/>
     </g>
     <g id="line2d_40">
      <g>
       <use xlink:href="#m253c34ce2e" x="265.525" y="184.634584" style="stroke: #000000; stroke-width: 0.8"/>
      </g>
     </g>
     <g id="text_11">
      <!-- 0.50 -->
      <g transform="translate(236.259375 188.433803) scale(0.1 -0.1)">
       <use xlink:href="#DejaVuSans-30"/>
       <use xlink:href="#DejaVuSans-2e" x="63.623047"/>
       <use xlink:href="#DejaVuSans-35" x="95.410156"/>
       <use xlink:href="#DejaVuSans-30" x="159.033203"/>
      </g>
     </g>
    </g>
    <g id="ytick_8">
     <g id="line2d_41">
      <path d="M 265.525 161.050693 
L 457.2 161.050693 
" clip-path="url(#pcb5a444d65)" style="fill: none; stroke-dasharray: 0.5,0.825; stroke-dashoffset: 0; stroke: #000000; stroke-opacity: 0.3; stroke-width: 0.5"/>
     </g>
     <g id="line2d_42">
      <g>
       <use xlink:href="#m253c34ce2e" x="265.525" y="161.050693" style="stroke: #000000; stroke-width: 0.8"/>
      </g>
     </g>
     <g id="text_12">
      <!-- 0.75 -->
      <g transform="translate(236.259375 164.849911) scale(0.1 -0.1)">
       <defs>
        <path id="DejaVuSans-37" d="M 525 4666 
L 3525 4666 
L 3525 4397 
L 1831 0 
L 1172 0 
L 2766 4134 
L 525 4134 
L 525 4666 
z
" transform="scale(0.015625)"/>
       </defs>
       <use xlink:href="#DejaVuSans-30"/>
       <use xlink:href="#DejaVuSans-2e" x="63.623047"/>
       <use xlink:href="#DejaVuSans-37" x="95.410156"/>
       <use xlink:href="#DejaVuSans-35" x="159.033203"/>
      </g>
     </g>
    </g>
    <g id="ytick_9">
     <g id="line2d_43">
      <path d="M 265.525 137.466801 
L 457.2 137.466801 
" clip-path="url(#pcb5a444d65)" style="fill: none; stroke-dasharray: 0.5,0.825; stroke-dashoffset: 0; stroke: #000000; stroke-opacity: 0.3; stroke-width: 0.5"/>
     </g>
     <g id="line2d_44">
      <g>
       <use xlink:href="#m253c34ce2e" x="265.525" y="137.466801" style="stroke: #000000; stroke-width: 0.8"/>
      </g>
     </g>
     <g id="text_13">
      <!-- 1.00 -->
      <g transform="translate(236.259375 141.26602) scale(0.1 -0.1)">
       <use xlink:href="#DejaVuSans-31"/>
       <use xlink:href="#DejaVuSans-2e" x="63.623047"/>
       <use xlink:href="#DejaVuSans-30" x="95.410156"/>
       <use xlink:href="#DejaVuSans-30" x="159.033203"/>
      </g>
     </g>
    </g>
    <g id="ytick_10">
     <g id="line2d_45">
      <path d="M 265.525 113.882909 
L 457.2 113.882909 
" clip-path="url(#pcb5a444d65)" style="fill: none; stroke-dasharray: 0.5,0.825; stroke-dashoffset: 0; stroke: #000000; stroke-opacity: 0.3; stroke-width: 0.5"/>
     </g>
     <g id="line2d_46">
      <g>
       <use xlink:href="#m253c34ce2e" x="265.525" y="113.882909" style="stroke: #000000; stroke-width: 0.8"/>
      </g>
     </g>
     <g id="text_14">
      <!-- 1.25 -->
      <g transform="translate(236.259375 117.682128) scale(0.1 -0.1)">
       <use xlink:href="#DejaVuSans-31"/>
       <use xlink:href="#DejaVuSans-2e" x="63.623047"/>
       <use xlink:href="#DejaVuSans-32" x="95.410156"/>
       <use xlink:href="#DejaVuSans-35" x="159.033203"/>
      </g>
     </g>
    </g>
    <g id="ytick_11">
     <g id="line2d_47">
      <path d="M 265.525 90.299018 
L 457.2 90.299018 
" clip-path="url(#pcb5a444d65)" style="fill: none; stroke-dasharray: 0.5,0.825; stroke-dashoffset: 0; stroke: #000000; stroke-opacity: 0.3; stroke-width: 0.5"/>
     </g>
     <g id="line2d_48">
      <g>
       <use xlink:href="#m253c34ce2e" x="265.525" y="90.299018" style="stroke: #000000; stroke-width: 0.8"/>
      </g>
     </g>
     <g id="text_15">
      <!-- 1.50 -->
      <g transform="translate(236.259375 94.098237) scale(0.1 -0.1)">
       <use xlink:href="#DejaVuSans-31"/>
       <use xlink:href="#DejaVuSans-2e" x="63.623047"/>
       <use xlink:href="#DejaVuSans-35" x="95.410156"/>
       <use xlink:href="#DejaVuSans-30" x="159.033203"/>
      </g>
     </g>
    </g>
    <g id="ytick_12">
     <g id="line2d_49">
      <path d="M 265.525 66.715126 
L 457.2 66.715126 
" clip-path="url(#pcb5a444d65)" style="fill: none; stroke-dasharray: 0.5,0.825; stroke-dashoffset: 0; stroke: #000000; stroke-opacity: 0.3; stroke-width: 0.5"/>
     </g>
     <g id="line2d_50">
      <g>
       <use xlink:href="#m253c34ce2e" x="265.525" y="66.715126" style="stroke: #000000; stroke-width: 0.8"/>
      </g>
     </g>
     <g id="text_16">
      <!-- 1.75 -->
      <g transform="translate(236.259375 70.514345) scale(0.1 -0.1)">
       <use xlink:href="#DejaVuSans-31"/>
       <use xlink:href="#DejaVuSans-2e" x="63.623047"/>
       <use xlink:href="#DejaVuSans-37" x="95.410156"/>
       <use xlink:href="#DejaVuSans-35" x="159.033203"/>
      </g>
     </g>
    </g>
    <g id="ytick_13">
     <g id="line2d_51">
      <path d="M 265.525 43.131235 
L 457.2 43.131235 
" clip-path="url(#pcb5a444d65)" style="fill: none; stroke-dasharray: 0.5,0.825; stroke-dashoffset: 0; stroke: #000000; stroke-opacity: 0.3; stroke-width: 0.5"/>
     </g>
     <g id="line2d_52">
      <g>
       <use xlink:href="#m253c34ce2e" x="265.525" y="43.131235" style="stroke: #000000; stroke-width: 0.8"/>
      </g>
     </g>
     <g id="text_17">
      <!-- 2.00 -->
      <g transform="translate(236.259375 46.930453) scale(0.1 -0.1)">
       <use xlink:href="#DejaVuSans-32"/>
       <use xlink:href="#DejaVuSans-2e" x="63.623047"/>
       <use xlink:href="#DejaVuSans-30" x="95.410156"/>
       <use xlink:href="#DejaVuSans-30" x="159.033203"/>
      </g>
     </g>
    </g>
   </g>
   <g id="line2d_53">
    <path d="M 274.2375 203.377909 
L 274.987219 200.097875 
L 276.216019 197.678582 
L 277.727842 195.52131 
L 279.458843 193.499912 
L 281.373524 191.562576 
L 283.448569 189.681553 
L 285.667218 187.841394 
L 288.016708 186.030048 
L 290.486917 184.237853 
L 293.069579 182.459191 
L 295.757786 180.689695 
L 298.545656 178.925881 
L 301.428111 177.164931 
L 304.400708 175.40451 
L 307.45952 173.642685 
L 310.601048 171.877796 
L 313.822146 170.108437 
L 317.119969 168.333411 
L 320.491928 166.551651 
L 323.935655 164.762252 
L 327.448974 162.964404 
L 331.029875 161.157402 
L 334.676497 159.340621 
L 338.387109 157.513506 
L 342.160098 155.675569 
L 345.993953 153.826368 
L 349.887258 151.965514 
L 353.838682 150.092659 
L 357.84697 148.207486 
L 361.910937 146.309726 
L 366.029461 144.399119 
L 370.201478 142.475437 
L 374.425981 140.538481 
L 378.702007 138.58805 
L 383.028642 136.623985 
L 387.405014 134.646121 
L 391.830288 132.654309 
L 396.303668 130.648403 
L 400.824388 128.62829 
L 405.391718 126.593784 
L 410.004954 124.544793 
L 414.663421 122.481138 
L 419.36647 120.40273 
L 424.113475 118.309279 
L 428.903835 116.200919 
L 433.736968 114.076643 
L 438.612315 111.938541 
L 443.529333 109.779022 
L 448.4875 107.622944 
" clip-path="url(#pcb5a444d65)" style="fill: none; stroke: #1f77b4; stroke-opacity: 0.7; stroke-width: 2; stroke-linecap: square"/>
   </g>
   <g id="line2d_54">
    <path d="M 274.2375 169.404532 
L 274.987219 168.671604 
L 276.216019 167.619685 
L 277.727842 166.44383 
L 279.458843 165.184831 
L 281.373524 163.867103 
L 283.448569 162.504578 
L 285.667218 161.105007 
L 288.016708 159.673561 
L 290.486917 158.213693 
L 293.069579 156.727855 
L 295.757786 155.217834 
L 298.545656 153.684975 
L 301.428111 152.130298 
L 304.400708 150.554609 
L 307.45952 148.958543 
L 310.601048 147.342613 
L 313.822146 145.707242 
L 317.119969 144.052774 
L 320.491928 142.379501 
L 323.935655 140.687666 
L 327.448974 138.977476 
L 331.029875 137.249105 
L 334.676497 135.502702 
L 338.387109 133.738402 
L 342.160098 131.956302 
L 345.993953 130.156502 
L 349.887258 128.339066 
L 353.838682 126.504053 
L 357.84697 124.65151 
L 361.910937 122.781454 
L 366.029461 120.893897 
L 370.201478 118.988816 
L 374.425981 117.066201 
L 378.702007 115.125976 
L 383.028642 113.168071 
L 387.405014 111.192377 
L 391.830288 109.198757 
L 396.303668 107.187034 
L 400.824388 105.157002 
L 405.391718 103.108387 
L 410.004954 101.040893 
L 414.663421 98.95411 
L 419.36647 96.847639 
L 424.113475 94.720803 
L 428.903835 92.573249 
L 433.736968 90.403604 
L 438.612315 88.212211 
L 443.529333 85.995226 
L 448.4875 83.757299 
" clip-path="url(#pcb5a444d65)" style="fill: none; stroke: #ff7f0e; stroke-opacity: 0.7; stroke-width: 2; stroke-linecap: square"/>
   </g>
   <g id="line2d_55">
    <path d="M 274.2375 122.384981 
L 274.987219 121.974287 
L 276.216019 121.30154 
L 277.727842 120.485267 
L 279.458843 119.563498 
L 281.373524 118.552347 
L 283.448569 117.466483 
L 285.667218 116.316286 
L 288.016708 115.109929 
L 290.486917 113.857036 
L 293.069579 112.557243 
L 295.757786 111.214266 
L 298.545656 109.831111 
L 301.428111 108.410275 
L 304.400708 106.953835 
L 307.45952 105.463537 
L 310.601048 103.940844 
L 313.822146 102.387006 
L 317.119969 100.803073 
L 320.491928 99.189931 
L 323.935655 97.548317 
L 327.448974 95.878839 
L 331.029875 94.181991 
L 334.676497 92.458153 
L 338.387109 90.707587 
L 342.160098 88.930474 
L 345.993953 87.127176 
L 349.887258 85.298514 
L 353.838682 83.443176 
L 357.84697 81.560923 
L 361.910937 79.651418 
L 366.029461 77.714167 
L 370.201478 75.748571 
L 374.425981 73.753869 
L 378.702007 71.729135 
L 383.028642 69.673275 
L 387.405014 67.584956 
L 391.830288 65.462614 
L 396.303668 63.304407 
L 400.824388 61.10817 
L 405.391718 58.871361 
L 410.004954 56.590995 
L 414.663421 54.263492 
L 419.36647 51.884734 
L 424.113475 49.449685 
L 428.903835 46.95254 
L 433.736968 44.38595 
L 438.612315 41.741757 
L 443.529333 39.008464 
L 448.4875 36.176091 
" clip-path="url(#pcb5a444d65)" style="fill: none; stroke: #2ca02c; stroke-opacity: 0.7; stroke-width: 2; stroke-linecap: square"/>
   </g>
   <g id="patch_9">
    <path d="M 265.525 211.738 
L 265.525 27.816 
" style="fill: none; stroke: #000000; stroke-width: 0.8; stroke-linejoin: miter; stroke-linecap: square"/>
   </g>
   <g id="patch_10">
    <path d="M 457.2 211.738 
L 457.2 27.816 
" style="fill: none; stroke: #000000; stroke-width: 0.8; stroke-linejoin: miter; stroke-linecap: square"/>
   </g>
   <g id="patch_11">
    <path d="M 265.525 211.738 
L 457.2 211.738 
" style="fill: none; stroke: #000000; stroke-width: 0.8; stroke-linejoin: miter; stroke-linecap: square"/>
   </g>
   <g id="patch_12">
    <path d="M 265.525 27.816 
L 457.2 27.816 
" style="fill: none; stroke: #000000; stroke-width: 0.8; stroke-linejoin: miter; stroke-linecap: square"/>
   </g>
   <g id="text_18">
    <!-- Consumption $c$ -->
    <g transform="translate(316.3625 21.816) scale(0.12 -0.12)">
     <defs>
      <path id="DejaVuSans-43" d="M 4122 4306 
L 4122 3641 
Q 3803 3938 3442 4084 
Q 3081 4231 2675 4231 
Q 1875 4231 1450 3742 
Q 1025 3253 1025 2328 
Q 1025 1406 1450 917 
Q 1875 428 2675 428 
Q 3081 428 3442 575 
Q 3803 722 4122 1019 
L 4122 359 
Q 3791 134 3420 21 
Q 3050 -91 2638 -91 
Q 1578 -91 968 557 
Q 359 1206 359 2328 
Q 359 3453 968 4101 
Q 1578 4750 2638 4750 
Q 3056 4750 3426 4639 
Q 3797 4528 4122 4306 
z
" transform="scale(0.015625)"/>
      <path id="DejaVuSans-6f" d="M 1959 3097 
Q 1497 3097 1228 2736 
Q 959 2375 959 1747 
Q 959 1119 1226 758 
Q 1494 397 1959 397 
Q 2419 397 2687 759 
Q 2956 1122 2956 1747 
Q 2956 2369 2687 2733 
Q 2419 3097 1959 3097 
z
M 1959 3584 
Q 2709 3584 3137 3096 
Q 3566 2609 3566 1747 
Q 3566 888 3137 398 
Q 2709 -91 1959 -91 
Q 1206 -91 779 398 
Q 353 888 353 1747 
Q 353 2609 779 3096 
Q 1206 3584 1959 3584 
z
" transform="scale(0.015625)"/>
      <path id="DejaVuSans-75" d="M 544 1381 
L 544 3500 
L 1119 3500 
L 1119 1403 
Q 1119 906 1312 657 
Q 1506 409 1894 409 
Q 2359 409 2629 706 
Q 2900 1003 2900 1516 
L 2900 3500 
L 3475 3500 
L 3475 0 
L 2900 0 
L 2900 538 
Q 2691 219 2414 64 
Q 2138 -91 1772 -91 
Q 1169 -91 856 284 
Q 544 659 544 1381 
z
M 1991 3584 
L 1991 3584 
z
" transform="scale(0.015625)"/>
      <path id="DejaVuSans-6d" d="M 3328 2828 
Q 3544 3216 3844 3400 
Q 4144 3584 4550 3584 
Q 5097 3584 5394 3201 
Q 5691 2819 5691 2113 
L 5691 0 
L 5113 0 
L 5113 2094 
Q 5113 2597 4934 2840 
Q 4756 3084 4391 3084 
Q 3944 3084 3684 2787 
Q 3425 2491 3425 1978 
L 3425 0 
L 2847 0 
L 2847 2094 
Q 2847 2600 2669 2842 
Q 2491 3084 2119 3084 
Q 1678 3084 1418 2786 
Q 1159 2488 1159 1978 
L 1159 0 
L 581 0 
L 581 3500 
L 1159 3500 
L 1159 2956 
Q 1356 3278 1631 3431 
Q 1906 3584 2284 3584 
Q 2666 3584 2933 3390 
Q 3200 3197 3328 2828 
z
" transform="scale(0.015625)"/>
      <path id="DejaVuSans-70" d="M 1159 525 
L 1159 -1331 
L 581 -1331 
L 581 3500 
L 1159 3500 
L 1159 2969 
Q 1341 3281 1617 3432 
Q 1894 3584 2278 3584 
Q 2916 3584 3314 3078 
Q 3713 2572 3713 1747 
Q 3713 922 3314 415 
Q 2916 -91 2278 -91 
Q 1894 -91 1617 61 
Q 1341 213 1159 525 
z
M 3116 1747 
Q 3116 2381 2855 2742 
Q 2594 3103 2138 3103 
Q 1681 3103 1420 2742 
Q 1159 2381 1159 1747 
Q 1159 1113 1420 752 
Q 1681 391 2138 391 
Q 2594 391 2855 752 
Q 3116 1113 3116 1747 
z
" transform="scale(0.015625)"/>
      <path id="DejaVuSans-74" d="M 1172 4494 
L 1172 3500 
L 2356 3500 
L 2356 3053 
L 1172 3053 
L 1172 1153 
Q 1172 725 1289 603 
Q 1406 481 1766 481 
L 2356 481 
L 2356 0 
L 1766 0 
Q 1100 0 847 248 
Q 594 497 594 1153 
L 594 3053 
L 172 3053 
L 172 3500 
L 594 3500 
L 594 4494 
L 1172 4494 
z
" transform="scale(0.015625)"/>
      <path id="DejaVuSans-Oblique-63" d="M 3431 3366 
L 3316 2797 
Q 3109 2947 2876 3022 
Q 2644 3097 2394 3097 
Q 2119 3097 1870 3000 
Q 1622 2903 1453 2725 
Q 1184 2453 1037 2087 
Q 891 1722 891 1331 
Q 891 859 1127 628 
Q 1363 397 1844 397 
Q 2081 397 2348 469 
Q 2616 541 2906 684 
L 2797 116 
Q 2547 13 2283 -39 
Q 2019 -91 1741 -91 
Q 1044 -91 669 257 
Q 294 606 294 1253 
Q 294 1797 489 2255 
Q 684 2713 1069 3078 
Q 1331 3328 1684 3456 
Q 2038 3584 2456 3584 
Q 2700 3584 2940 3529 
Q 3181 3475 3431 3366 
z
" transform="scale(0.015625)"/>
     </defs>
     <use xlink:href="#DejaVuSans-43" transform="translate(0 0.015625)"/>
     <use xlink:href="#DejaVuSans-6f" transform="translate(69.824219 0.015625)"/>
     <use xlink:href="#DejaVuSans-6e" transform="translate(131.005859 0.015625)"/>
     <use xlink:href="#DejaVuSans-73" transform="translate(194.384766 0.015625)"/>
     <use xlink:href="#DejaVuSans-75" transform="translate(246.484375 0.015625)"/>
     <use xlink:href="#DejaVuSans-6d" transform="translate(309.863281 0.015625)"/>
     <use xlink:href="#DejaVuSans-70" transform="translate(407.275391 0.015625)"/>
     <use xlink:href="#DejaVuSans-74" transform="translate(470.751953 0.015625)"/>
     <use xlink:href="#DejaVuSans-69" transform="translate(509.960938 0.015625)"/>
     <use xlink:href="#DejaVuSans-6f" transform="translate(537.744141 0.015625)"/>
     <use xlink:href="#DejaVuSans-6e" transform="translate(598.925781 0.015625)"/>
     <use xlink:href="#DejaVuSans-20" transform="translate(662.304688 0.015625)"/>
     <use xlink:href="#DejaVuSans-Oblique-63" transform="translate(694.091797 0.015625)"/>
    </g>
   </g>
  </g>
  <g id="axes_3">
   <g id="patch_13">
    <path d="M 33.73 426.04 
L 225.405 426.04 
L 225.405 242.118 
L 33.73 242.118 
z
" style="fill: #ffffff"/>
   </g>
   <g id="matplotlib.axis_5">
    <g id="xtick_11">
     <g id="line2d_56">
      <path d="M 42.4425 426.04 
L 42.4425 242.118 
" clip-path="url(#p9823b81a9e)" style="fill: none; stroke-dasharray: 0.5,0.825; stroke-dashoffset: 0; stroke: #000000; stroke-opacity: 0.3; stroke-width: 0.5"/>
     </g>
     <g id="line2d_57">
      <g>
       <use xlink:href="#mfa1135a3cb" x="42.4425" y="426.04" style="stroke: #000000; stroke-width: 0.8"/>
      </g>
     </g>
     <g id="text_19">
      <!-- 0 -->
      <g transform="translate(39.26125 440.638437) scale(0.1 -0.1)">
       <use xlink:href="#DejaVuSans-30"/>
      </g>
     </g>
    </g>
    <g id="xtick_12">
     <g id="line2d_58">
      <path d="M 86.005 426.04 
L 86.005 242.118 
" clip-path="url(#p9823b81a9e)" style="fill: none; stroke-dasharray: 0.5,0.825; stroke-dashoffset: 0; stroke: #000000; stroke-opacity: 0.3; stroke-width: 0.5"/>
     </g>
     <g id="line2d_59">
      <g>
       <use xlink:href="#mfa1135a3cb" x="86.005" y="426.04" style="stroke: #000000; stroke-width: 0.8"/>
      </g>
     </g>
     <g id="text_20">
      <!-- 5 -->
      <g transform="translate(82.82375 440.638437) scale(0.1 -0.1)">
       <use xlink:href="#DejaVuSans-35"/>
      </g>
     </g>
    </g>
    <g id="xtick_13">
     <g id="line2d_60">
      <path d="M 129.5675 426.04 
L 129.5675 242.118 
" clip-path="url(#p9823b81a9e)" style="fill: none; stroke-dasharray: 0.5,0.825; stroke-dashoffset: 0; stroke: #000000; stroke-opacity: 0.3; stroke-width: 0.5"/>
     </g>
     <g id="line2d_61">
      <g>
       <use xlink:href="#mfa1135a3cb" x="129.5675" y="426.04" style="stroke: #000000; stroke-width: 0.8"/>
      </g>
     </g>
     <g id="text_21">
      <!-- 10 -->
      <g transform="translate(123.205 440.638437) scale(0.1 -0.1)">
       <use xlink:href="#DejaVuSans-31"/>
       <use xlink:href="#DejaVuSans-30" x="63.623047"/>
      </g>
     </g>
    </g>
    <g id="xtick_14">
     <g id="line2d_62">
      <path d="M 173.13 426.04 
L 173.13 242.118 
" clip-path="url(#p9823b81a9e)" style="fill: none; stroke-dasharray: 0.5,0.825; stroke-dashoffset: 0; stroke: #000000; stroke-opacity: 0.3; stroke-width: 0.5"/>
     </g>
     <g id="line2d_63">
      <g>
       <use xlink:href="#mfa1135a3cb" x="173.13" y="426.04" style="stroke: #000000; stroke-width: 0.8"/>
      </g>
     </g>
     <g id="text_22">
      <!-- 15 -->
      <g transform="translate(166.7675 440.638437) scale(0.1 -0.1)">
       <use xlink:href="#DejaVuSans-31"/>
       <use xlink:href="#DejaVuSans-35" x="63.623047"/>
      </g>
     </g>
    </g>
    <g id="xtick_15">
     <g id="line2d_64">
      <path d="M 216.6925 426.04 
L 216.6925 242.118 
" clip-path="url(#p9823b81a9e)" style="fill: none; stroke-dasharray: 0.5,0.825; stroke-dashoffset: 0; stroke: #000000; stroke-opacity: 0.3; stroke-width: 0.5"/>
     </g>
     <g id="line2d_65">
      <g>
       <use xlink:href="#mfa1135a3cb" x="216.6925" y="426.04" style="stroke: #000000; stroke-width: 0.8"/>
      </g>
     </g>
     <g id="text_23">
      <!-- 20 -->
      <g transform="translate(210.33 440.638437) scale(0.1 -0.1)">
       <use xlink:href="#DejaVuSans-32"/>
       <use xlink:href="#DejaVuSans-30" x="63.623047"/>
      </g>
     </g>
    </g>
    <g id="text_24">
     <!-- Assets -->
     <g transform="translate(113.296406 454.316562) scale(0.1 -0.1)">
      <defs>
       <path id="DejaVuSans-41" d="M 2188 4044 
L 1331 1722 
L 3047 1722 
L 2188 4044 
z
M 1831 4666 
L 2547 4666 
L 4325 0 
L 3669 0 
L 3244 1197 
L 1141 1197 
L 716 0 
L 50 0 
L 1831 4666 
z
" transform="scale(0.015625)"/>
       <path id="DejaVuSans-65" d="M 3597 1894 
L 3597 1613 
L 953 1613 
Q 991 1019 1311 708 
Q 1631 397 2203 397 
Q 2534 397 2845 478 
Q 3156 559 3463 722 
L 3463 178 
Q 3153 47 2828 -22 
Q 2503 -91 2169 -91 
Q 1331 -91 842 396 
Q 353 884 353 1716 
Q 353 2575 817 3079 
Q 1281 3584 2069 3584 
Q 2775 3584 3186 3129 
Q 3597 2675 3597 1894 
z
M 3022 2063 
Q 3016 2534 2758 2815 
Q 2500 3097 2075 3097 
Q 1594 3097 1305 2825 
Q 1016 2553 972 2059 
L 3022 2063 
z
" transform="scale(0.015625)"/>
      </defs>
      <use xlink:href="#DejaVuSans-41"/>
      <use xlink:href="#DejaVuSans-73" x="68.408203"/>
      <use xlink:href="#DejaVuSans-73" x="120.507812"/>
      <use xlink:href="#DejaVuSans-65" x="172.607422"/>
      <use xlink:href="#DejaVuSans-74" x="234.130859"/>
      <use xlink:href="#DejaVuSans-73" x="273.339844"/>
     </g>
    </g>
   </g>
   <g id="matplotlib.axis_6">
    <g id="ytick_14">
     <g id="line2d_66">
      <path d="M 33.73 426.04 
L 225.405 426.04 
" clip-path="url(#p9823b81a9e)" style="fill: none; stroke-dasharray: 0.5,0.825; stroke-dashoffset: 0; stroke: #000000; stroke-opacity: 0.3; stroke-width: 0.5"/>
     </g>
     <g id="line2d_67">
      <g>
       <use xlink:href="#m253c34ce2e" x="33.73" y="426.04" style="stroke: #000000; stroke-width: 0.8"/>
      </g>
     </g>
     <g id="text_25">
      <!-- 0.0 -->
      <g transform="translate(10.826875 429.839219) scale(0.1 -0.1)">
       <use xlink:href="#DejaVuSans-30"/>
       <use xlink:href="#DejaVuSans-2e" x="63.623047"/>
       <use xlink:href="#DejaVuSans-30" x="95.410156"/>
      </g>
     </g>
    </g>
    <g id="ytick_15">
     <g id="line2d_68">
      <path d="M 33.73 389.2556 
L 225.405 389.2556 
" clip-path="url(#p9823b81a9e)" style="fill: none; stroke-dasharray: 0.5,0.825; stroke-dashoffset: 0; stroke: #000000; stroke-opacity: 0.3; stroke-width: 0.5"/>
     </g>
     <g id="line2d_69">
      <g>
       <use xlink:href="#m253c34ce2e" x="33.73" y="389.2556" style="stroke: #000000; stroke-width: 0.8"/>
      </g>
     </g>
     <g id="text_26">
      <!-- 0.2 -->
      <g transform="translate(10.826875 393.054819) scale(0.1 -0.1)">
       <use xlink:href="#DejaVuSans-30"/>
       <use xlink:href="#DejaVuSans-2e" x="63.623047"/>
       <use xlink:href="#DejaVuSans-32" x="95.410156"/>
      </g>
     </g>
    </g>
    <g id="ytick_16">
     <g id="line2d_70">
      <path d="M 33.73 352.4712 
L 225.405 352.4712 
" clip-path="url(#p9823b81a9e)" style="fill: none; stroke-dasharray: 0.5,0.825; stroke-dashoffset: 0; stroke: #000000; stroke-opacity: 0.3; stroke-width: 0.5"/>
     </g>
     <g id="line2d_71">
      <g>
       <use xlink:href="#m253c34ce2e" x="33.73" y="352.4712" style="stroke: #000000; stroke-width: 0.8"/>
      </g>
     </g>
     <g id="text_27">
      <!-- 0.4 -->
      <g transform="translate(10.826875 356.270419) scale(0.1 -0.1)">
       <defs>
        <path id="DejaVuSans-34" d="M 2419 4116 
L 825 1625 
L 2419 1625 
L 2419 4116 
z
M 2253 4666 
L 3047 4666 
L 3047 1625 
L 3713 1625 
L 3713 1100 
L 3047 1100 
L 3047 0 
L 2419 0 
L 2419 1100 
L 313 1100 
L 313 1709 
L 2253 4666 
z
" transform="scale(0.015625)"/>
       </defs>
       <use xlink:href="#DejaVuSans-30"/>
       <use xlink:href="#DejaVuSans-2e" x="63.623047"/>
       <use xlink:href="#DejaVuSans-34" x="95.410156"/>
      </g>
     </g>
    </g>
    <g id="ytick_17">
     <g id="line2d_72">
      <path d="M 33.73 315.6868 
L 225.405 315.6868 
" clip-path="url(#p9823b81a9e)" style="fill: none; stroke-dasharray: 0.5,0.825; stroke-dashoffset: 0; stroke: #000000; stroke-opacity: 0.3; stroke-width: 0.5"/>
     </g>
     <g id="line2d_73">
      <g>
       <use xlink:href="#m253c34ce2e" x="33.73" y="315.6868" style="stroke: #000000; stroke-width: 0.8"/>
      </g>
     </g>
     <g id="text_28">
      <!-- 0.6 -->
      <g transform="translate(10.826875 319.486019) scale(0.1 -0.1)">
       <defs>
        <path id="DejaVuSans-36" d="M 2113 2584 
Q 1688 2584 1439 2293 
Q 1191 2003 1191 1497 
Q 1191 994 1439 701 
Q 1688 409 2113 409 
Q 2538 409 2786 701 
Q 3034 994 3034 1497 
Q 3034 2003 2786 2293 
Q 2538 2584 2113 2584 
z
M 3366 4563 
L 3366 3988 
Q 3128 4100 2886 4159 
Q 2644 4219 2406 4219 
Q 1781 4219 1451 3797 
Q 1122 3375 1075 2522 
Q 1259 2794 1537 2939 
Q 1816 3084 2150 3084 
Q 2853 3084 3261 2657 
Q 3669 2231 3669 1497 
Q 3669 778 3244 343 
Q 2819 -91 2113 -91 
Q 1303 -91 875 529 
Q 447 1150 447 2328 
Q 447 3434 972 4092 
Q 1497 4750 2381 4750 
Q 2619 4750 2861 4703 
Q 3103 4656 3366 4563 
z
" transform="scale(0.015625)"/>
       </defs>
       <use xlink:href="#DejaVuSans-30"/>
       <use xlink:href="#DejaVuSans-2e" x="63.623047"/>
       <use xlink:href="#DejaVuSans-36" x="95.410156"/>
      </g>
     </g>
    </g>
    <g id="ytick_18">
     <g id="line2d_74">
      <path d="M 33.73 278.9024 
L 225.405 278.9024 
" clip-path="url(#p9823b81a9e)" style="fill: none; stroke-dasharray: 0.5,0.825; stroke-dashoffset: 0; stroke: #000000; stroke-opacity: 0.3; stroke-width: 0.5"/>
     </g>
     <g id="line2d_75">
      <g>
       <use xlink:href="#m253c34ce2e" x="33.73" y="278.9024" style="stroke: #000000; stroke-width: 0.8"/>
      </g>
     </g>
     <g id="text_29">
      <!-- 0.8 -->
      <g transform="translate(10.826875 282.701619) scale(0.1 -0.1)">
       <use xlink:href="#DejaVuSans-30"/>
       <use xlink:href="#DejaVuSans-2e" x="63.623047"/>
       <use xlink:href="#DejaVuSans-38" x="95.410156"/>
      </g>
     </g>
    </g>
    <g id="ytick_19">
     <g id="line2d_76">
      <path d="M 33.73 242.118 
L 225.405 242.118 
" clip-path="url(#p9823b81a9e)" style="fill: none; stroke-dasharray: 0.5,0.825; stroke-dashoffset: 0; stroke: #000000; stroke-opacity: 0.3; stroke-width: 0.5"/>
     </g>
     <g id="line2d_77">
      <g>
       <use xlink:href="#m253c34ce2e" x="33.73" y="242.118" style="stroke: #000000; stroke-width: 0.8"/>
      </g>
     </g>
     <g id="text_30">
      <!-- 1.0 -->
      <g transform="translate(10.826875 245.917219) scale(0.1 -0.1)">
       <use xlink:href="#DejaVuSans-31"/>
       <use xlink:href="#DejaVuSans-2e" x="63.623047"/>
       <use xlink:href="#DejaVuSans-30" x="95.410156"/>
      </g>
     </g>
    </g>
   </g>
   <g id="line2d_78">
    <path d="M 42.4425 258.838182 
L 43.192219 260.767603 
L 44.421019 262.19071 
L 45.932842 263.459687 
L 47.663843 264.648738 
L 49.578524 265.788341 
L 51.653569 266.89482 
L 53.872218 267.97726 
L 56.221708 269.042752 
L 58.691917 270.096979 
L 61.274579 271.143245 
L 63.962786 272.18412 
L 66.750656 273.221652 
L 69.633111 274.2575 
L 72.605708 275.293036 
L 75.66452 276.329398 
L 78.806048 277.367563 
L 82.027146 278.408357 
L 85.324969 279.452484 
L 88.696928 280.500573 
L 92.140655 281.553155 
L 95.653974 282.610707 
L 99.234875 283.673644 
L 102.881497 284.742333 
L 106.592109 285.817101 
L 110.365098 286.898235 
L 114.198953 287.985994 
L 118.092258 289.080608 
L 122.043682 290.182282 
L 126.05197 291.291201 
L 130.115937 292.407525 
L 134.234461 293.531405 
L 138.406478 294.662977 
L 142.630981 295.802357 
L 146.907007 296.949663 
L 151.233642 298.104989 
L 155.610014 299.268433 
L 160.035288 300.440081 
L 164.508668 301.620019 
L 169.029388 302.808315 
L 173.596718 304.005077 
L 178.209954 305.210359 
L 182.868421 306.424267 
L 187.57147 307.646854 
L 192.318475 308.878289 
L 197.108835 310.118495 
L 201.941968 311.368062 
L 206.817315 312.625763 
L 211.734333 313.896061 
L 216.6925 315.164336 
" clip-path="url(#p9823b81a9e)" style="fill: none; stroke: #1f77b4; stroke-opacity: 0.7; stroke-width: 2; stroke-linecap: square"/>
   </g>
   <g id="line2d_79">
    <path d="M 42.4425 256.954279 
L 43.192219 257.128547 
L 44.421019 257.37866 
L 45.932842 257.658242 
L 47.663843 257.957594 
L 49.578524 258.270908 
L 51.653569 258.594875 
L 53.872218 258.92765 
L 56.221708 259.268003 
L 58.691917 259.615115 
L 61.274579 259.968401 
L 63.962786 260.327438 
L 66.750656 260.691904 
L 69.633111 261.061558 
L 72.605708 261.436209 
L 75.66452 261.815704 
L 78.806048 262.199922 
L 82.027146 262.588763 
L 85.324969 262.982144 
L 88.696928 263.379997 
L 92.140655 263.782263 
L 95.653974 264.188893 
L 99.234875 264.599847 
L 102.881497 265.015087 
L 106.592109 265.434583 
L 110.365098 265.858312 
L 114.198953 266.286249 
L 118.092258 266.718379 
L 122.043682 267.154688 
L 126.05197 267.595166 
L 130.115937 268.039807 
L 134.234461 268.48861 
L 138.406478 268.94158 
L 142.630981 269.398718 
L 146.907007 269.860044 
L 151.233642 270.325573 
L 155.610014 270.795332 
L 160.035288 271.269353 
L 164.508668 271.747679 
L 169.029388 272.230358 
L 173.596718 272.717455 
L 178.209954 273.209041 
L 182.868421 273.705214 
L 187.57147 274.206068 
L 192.318475 274.711764 
L 197.108835 275.222386 
L 201.941968 275.73826 
L 206.817315 276.259306 
L 211.734333 276.786437 
L 216.6925 277.318547 
" clip-path="url(#p9823b81a9e)" style="fill: none; stroke: #ff7f0e; stroke-opacity: 0.7; stroke-width: 2; stroke-linecap: square"/>
   </g>
   <g id="line2d_80">
    <path d="M 42.4425 252.633949 
L 43.192219 252.67342 
L 44.421019 252.738077 
L 45.932842 252.816528 
L 47.663843 252.905118 
L 49.578524 253.002298 
L 51.653569 253.106659 
L 53.872218 253.217202 
L 56.221708 253.333144 
L 58.691917 253.453558 
L 61.274579 253.578479 
L 63.962786 253.70755 
L 66.750656 253.840483 
L 69.633111 253.977038 
L 72.605708 254.117014 
L 75.66452 254.260245 
L 78.806048 254.406589 
L 82.027146 254.555926 
L 85.324969 254.708155 
L 88.696928 254.863192 
L 92.140655 255.020965 
L 95.653974 255.181416 
L 99.234875 255.344498 
L 102.881497 255.510174 
L 106.592109 255.678418 
L 110.365098 255.849214 
L 114.198953 256.022526 
L 118.092258 256.198276 
L 122.043682 256.37659 
L 126.05197 256.557491 
L 130.115937 256.741011 
L 134.234461 256.927197 
L 138.406478 257.116108 
L 142.630981 257.307816 
L 146.907007 257.50241 
L 151.233642 257.699996 
L 155.610014 257.900701 
L 160.035288 258.104676 
L 164.508668 258.312098 
L 169.029388 258.523176 
L 173.596718 258.738152 
L 178.209954 258.957315 
L 182.868421 259.181008 
L 187.57147 259.409627 
L 192.318475 259.643656 
L 197.108835 259.883653 
L 201.941968 260.130324 
L 206.817315 260.384454 
L 211.734333 260.647147 
L 216.6925 260.919362 
" clip-path="url(#p9823b81a9e)" style="fill: none; stroke: #2ca02c; stroke-opacity: 0.7; stroke-width: 2; stroke-linecap: square"/>
   </g>
   <g id="patch_14">
    <path d="M 33.73 426.04 
L 33.73 242.118 
" style="fill: none; stroke: #000000; stroke-width: 0.8; stroke-linejoin: miter; stroke-linecap: square"/>
   </g>
   <g id="patch_15">
    <path d="M 225.405 426.04 
L 225.405 242.118 
" style="fill: none; stroke: #000000; stroke-width: 0.8; stroke-linejoin: miter; stroke-linecap: square"/>
   </g>
   <g id="patch_16">
    <path d="M 33.73 426.04 
L 225.405 426.04 
" style="fill: none; stroke: #000000; stroke-width: 0.8; stroke-linejoin: miter; stroke-linecap: square"/>
   </g>
   <g id="patch_17">
    <path d="M 33.73 242.118 
L 225.405 242.118 
" style="fill: none; stroke: #000000; stroke-width: 0.8; stroke-linejoin: miter; stroke-linecap: square"/>
   </g>
   <g id="text_31">
    <!-- Labour supply $\ell$ -->
    <g transform="translate(82.7075 236.118) scale(0.12 -0.12)">
     <defs>
      <path id="DejaVuSans-4c" d="M 628 4666 
L 1259 4666 
L 1259 531 
L 3531 531 
L 3531 0 
L 628 0 
L 628 4666 
z
" transform="scale(0.015625)"/>
      <path id="DejaVuSans-62" d="M 3116 1747 
Q 3116 2381 2855 2742 
Q 2594 3103 2138 3103 
Q 1681 3103 1420 2742 
Q 1159 2381 1159 1747 
Q 1159 1113 1420 752 
Q 1681 391 2138 391 
Q 2594 391 2855 752 
Q 3116 1113 3116 1747 
z
M 1159 2969 
Q 1341 3281 1617 3432 
Q 1894 3584 2278 3584 
Q 2916 3584 3314 3078 
Q 3713 2572 3713 1747 
Q 3713 922 3314 415 
Q 2916 -91 2278 -91 
Q 1894 -91 1617 61 
Q 1341 213 1159 525 
L 1159 0 
L 581 0 
L 581 4863 
L 1159 4863 
L 1159 2969 
z
" transform="scale(0.015625)"/>
      <path id="DejaVuSans-72" d="M 2631 2963 
Q 2534 3019 2420 3045 
Q 2306 3072 2169 3072 
Q 1681 3072 1420 2755 
Q 1159 2438 1159 1844 
L 1159 0 
L 581 0 
L 581 3500 
L 1159 3500 
L 1159 2956 
Q 1341 3275 1631 3429 
Q 1922 3584 2338 3584 
Q 2397 3584 2469 3576 
Q 2541 3569 2628 3553 
L 2631 2963 
z
" transform="scale(0.015625)"/>
      <path id="DejaVuSans-6c" d="M 603 4863 
L 1178 4863 
L 1178 0 
L 603 0 
L 603 4863 
z
" transform="scale(0.015625)"/>
      <path id="DejaVuSans-79" d="M 2059 -325 
Q 1816 -950 1584 -1140 
Q 1353 -1331 966 -1331 
L 506 -1331 
L 506 -850 
L 844 -850 
Q 1081 -850 1212 -737 
Q 1344 -625 1503 -206 
L 1606 56 
L 191 3500 
L 800 3500 
L 1894 763 
L 2988 3500 
L 3597 3500 
L 2059 -325 
z
" transform="scale(0.015625)"/>
      <path id="DejaVuSans-Oblique-2113" d="M 950 838 
Q 1078 213 1350 213 
Q 1531 213 1766 572 
L 2181 572 
Q 1994 253 1775 88 
Q 1538 -91 1319 -91 
Q 831 -91 634 344 
L 400 0 
L -88 0 
Q 250 459 500 888 
Q 469 1131 469 1397 
Q 469 1872 566 2347 
Q 931 4131 1256 4497 
Q 1481 4750 1866 4750 
Q 2256 4750 2256 4209 
Q 2253 3966 2197 3675 
Q 1972 2484 950 838 
z
M 947 1656 
Q 1531 2744 1709 3613 
Q 1803 4072 1803 4191 
Q 1803 4406 1725 4406 
Q 1384 4134 1081 2516 
Q 997 2063 947 1656 
z
" transform="scale(0.015625)"/>
     </defs>
     <use xlink:href="#DejaVuSans-4c" transform="translate(0 0.015625)"/>
     <use xlink:href="#DejaVuSans-61" transform="translate(55.712891 0.015625)"/>
     <use xlink:href="#DejaVuSans-62" transform="translate(116.992188 0.015625)"/>
     <use xlink:href="#DejaVuSans-6f" transform="translate(180.46875 0.015625)"/>
     <use xlink:href="#DejaVuSans-75" transform="translate(241.650391 0.015625)"/>
     <use xlink:href="#DejaVuSans-72" transform="translate(305.029297 0.015625)"/>
     <use xlink:href="#DejaVuSans-20" transform="translate(346.142578 0.015625)"/>
     <use xlink:href="#DejaVuSans-73" transform="translate(377.929688 0.015625)"/>
     <use xlink:href="#DejaVuSans-75" transform="translate(430.029297 0.015625)"/>
     <use xlink:href="#DejaVuSans-70" transform="translate(493.408203 0.015625)"/>
     <use xlink:href="#DejaVuSans-70" transform="translate(556.884766 0.015625)"/>
     <use xlink:href="#DejaVuSans-6c" transform="translate(620.361328 0.015625)"/>
     <use xlink:href="#DejaVuSans-79" transform="translate(648.144531 0.015625)"/>
     <use xlink:href="#DejaVuSans-20" transform="translate(707.324219 0.015625)"/>
     <use xlink:href="#DejaVuSans-Oblique-2113" transform="translate(739.111328 0.015625)"/>
    </g>
   </g>
  </g>
  <g id="axes_4">
   <g id="patch_18">
    <path d="M 265.525 426.04 
L 457.2 426.04 
L 457.2 242.118 
L 265.525 242.118 
z
" style="fill: #ffffff"/>
   </g>
   <g id="matplotlib.axis_7">
    <g id="xtick_16">
     <g id="line2d_81">
      <path d="M 274.2375 426.04 
L 274.2375 242.118 
" clip-path="url(#pc443c881f5)" style="fill: none; stroke-dasharray: 0.5,0.825; stroke-dashoffset: 0; stroke: #000000; stroke-opacity: 0.3; stroke-width: 0.5"/>
     </g>
     <g id="line2d_82">
      <g>
       <use xlink:href="#mfa1135a3cb" x="274.2375" y="426.04" style="stroke: #000000; stroke-width: 0.8"/>
      </g>
     </g>
     <g id="text_32">
      <!-- 0 -->
      <g transform="translate(271.05625 440.638437) scale(0.1 -0.1)">
       <use xlink:href="#DejaVuSans-30"/>
      </g>
     </g>
    </g>
    <g id="xtick_17">
     <g id="line2d_83">
      <path d="M 317.8 426.04 
L 317.8 242.118 
" clip-path="url(#pc443c881f5)" style="fill: none; stroke-dasharray: 0.5,0.825; stroke-dashoffset: 0; stroke: #000000; stroke-opacity: 0.3; stroke-width: 0.5"/>
     </g>
     <g id="line2d_84">
      <g>
       <use xlink:href="#mfa1135a3cb" x="317.8" y="426.04" style="stroke: #000000; stroke-width: 0.8"/>
      </g>
     </g>
     <g id="text_33">
      <!-- 5 -->
      <g transform="translate(314.61875 440.638437) scale(0.1 -0.1)">
       <use xlink:href="#DejaVuSans-35"/>
      </g>
     </g>
    </g>
    <g id="xtick_18">
     <g id="line2d_85">
      <path d="M 361.3625 426.04 
L 361.3625 242.118 
" clip-path="url(#pc443c881f5)" style="fill: none; stroke-dasharray: 0.5,0.825; stroke-dashoffset: 0; stroke: #000000; stroke-opacity: 0.3; stroke-width: 0.5"/>
     </g>
     <g id="line2d_86">
      <g>
       <use xlink:href="#mfa1135a3cb" x="361.3625" y="426.04" style="stroke: #000000; stroke-width: 0.8"/>
      </g>
     </g>
     <g id="text_34">
      <!-- 10 -->
      <g transform="translate(355 440.638437) scale(0.1 -0.1)">
       <use xlink:href="#DejaVuSans-31"/>
       <use xlink:href="#DejaVuSans-30" x="63.623047"/>
      </g>
     </g>
    </g>
    <g id="xtick_19">
     <g id="line2d_87">
      <path d="M 404.925 426.04 
L 404.925 242.118 
" clip-path="url(#pc443c881f5)" style="fill: none; stroke-dasharray: 0.5,0.825; stroke-dashoffset: 0; stroke: #000000; stroke-opacity: 0.3; stroke-width: 0.5"/>
     </g>
     <g id="line2d_88">
      <g>
       <use xlink:href="#mfa1135a3cb" x="404.925" y="426.04" style="stroke: #000000; stroke-width: 0.8"/>
      </g>
     </g>
     <g id="text_35">
      <!-- 15 -->
      <g transform="translate(398.5625 440.638437) scale(0.1 -0.1)">
       <use xlink:href="#DejaVuSans-31"/>
       <use xlink:href="#DejaVuSans-35" x="63.623047"/>
      </g>
     </g>
    </g>
    <g id="xtick_20">
     <g id="line2d_89">
      <path d="M 448.4875 426.04 
L 448.4875 242.118 
" clip-path="url(#pc443c881f5)" style="fill: none; stroke-dasharray: 0.5,0.825; stroke-dashoffset: 0; stroke: #000000; stroke-opacity: 0.3; stroke-width: 0.5"/>
     </g>
     <g id="line2d_90">
      <g>
       <use xlink:href="#mfa1135a3cb" x="448.4875" y="426.04" style="stroke: #000000; stroke-width: 0.8"/>
      </g>
     </g>
     <g id="text_36">
      <!-- 20 -->
      <g transform="translate(442.125 440.638437) scale(0.1 -0.1)">
       <use xlink:href="#DejaVuSans-32"/>
       <use xlink:href="#DejaVuSans-30" x="63.623047"/>
      </g>
     </g>
    </g>
    <g id="text_37">
     <!-- Assets -->
     <g transform="translate(345.091406 454.316562) scale(0.1 -0.1)">
      <use xlink:href="#DejaVuSans-41"/>
      <use xlink:href="#DejaVuSans-73" x="68.408203"/>
      <use xlink:href="#DejaVuSans-73" x="120.507812"/>
      <use xlink:href="#DejaVuSans-65" x="172.607422"/>
      <use xlink:href="#DejaVuSans-74" x="234.130859"/>
      <use xlink:href="#DejaVuSans-73" x="273.339844"/>
     </g>
    </g>
   </g>
   <g id="matplotlib.axis_8">
    <g id="ytick_20">
     <g id="line2d_91">
      <path d="M 265.525 402.694355 
L 457.2 402.694355 
" clip-path="url(#pc443c881f5)" style="fill: none; stroke-dasharray: 0.5,0.825; stroke-dashoffset: 0; stroke: #000000; stroke-opacity: 0.3; stroke-width: 0.5"/>
     </g>
     <g id="line2d_92">
      <g>
       <use xlink:href="#m253c34ce2e" x="265.525" y="402.694355" style="stroke: #000000; stroke-width: 0.8"/>
      </g>
     </g>
     <g id="text_38">
      <!-- 20 -->
      <g transform="translate(237.420312 406.493574) scale(0.1 -0.1)">
       <defs>
        <path id="DejaVuSans-2212" d="M 678 2272 
L 4684 2272 
L 4684 1741 
L 678 1741 
L 678 2272 
z
" transform="scale(0.015625)"/>
       </defs>
       <use xlink:href="#DejaVuSans-2212"/>
       <use xlink:href="#DejaVuSans-32" x="83.789062"/>
       <use xlink:href="#DejaVuSans-30" x="147.412109"/>
      </g>
     </g>
    </g>
    <g id="ytick_21">
     <g id="line2d_93">
      <path d="M 265.525 379.173585 
L 457.2 379.173585 
" clip-path="url(#pc443c881f5)" style="fill: none; stroke-dasharray: 0.5,0.825; stroke-dashoffset: 0; stroke: #000000; stroke-opacity: 0.3; stroke-width: 0.5"/>
     </g>
     <g id="line2d_94">
      <g>
       <use xlink:href="#m253c34ce2e" x="265.525" y="379.173585" style="stroke: #000000; stroke-width: 0.8"/>
      </g>
     </g>
     <g id="text_39">
      <!-- 15 -->
      <g transform="translate(237.420312 382.972804) scale(0.1 -0.1)">
       <use xlink:href="#DejaVuSans-2212"/>
       <use xlink:href="#DejaVuSans-31" x="83.789062"/>
       <use xlink:href="#DejaVuSans-35" x="147.412109"/>
      </g>
     </g>
    </g>
    <g id="ytick_22">
     <g id="line2d_95">
      <path d="M 265.525 355.652815 
L 457.2 355.652815 
" clip-path="url(#pc443c881f5)" style="fill: none; stroke-dasharray: 0.5,0.825; stroke-dashoffset: 0; stroke: #000000; stroke-opacity: 0.3; stroke-width: 0.5"/>
     </g>
     <g id="line2d_96">
      <g>
       <use xlink:href="#m253c34ce2e" x="265.525" y="355.652815" style="stroke: #000000; stroke-width: 0.8"/>
      </g>
     </g>
     <g id="text_40">
      <!-- 10 -->
      <g transform="translate(237.420312 359.452034) scale(0.1 -0.1)">
       <use xlink:href="#DejaVuSans-2212"/>
       <use xlink:href="#DejaVuSans-31" x="83.789062"/>
       <use xlink:href="#DejaVuSans-30" x="147.412109"/>
      </g>
     </g>
    </g>
    <g id="ytick_23">
     <g id="line2d_97">
      <path d="M 265.525 332.132045 
L 457.2 332.132045 
" clip-path="url(#pc443c881f5)" style="fill: none; stroke-dasharray: 0.5,0.825; stroke-dashoffset: 0; stroke: #000000; stroke-opacity: 0.3; stroke-width: 0.5"/>
     </g>
     <g id="line2d_98">
      <g>
       <use xlink:href="#m253c34ce2e" x="265.525" y="332.132045" style="stroke: #000000; stroke-width: 0.8"/>
      </g>
     </g>
     <g id="text_41">
      <!-- 5 -->
      <g transform="translate(243.782812 335.931264) scale(0.1 -0.1)">
       <use xlink:href="#DejaVuSans-2212"/>
       <use xlink:href="#DejaVuSans-35" x="83.789062"/>
      </g>
     </g>
    </g>
    <g id="ytick_24">
     <g id="line2d_99">
      <path d="M 265.525 308.611275 
L 457.2 308.611275 
" clip-path="url(#pc443c881f5)" style="fill: none; stroke-dasharray: 0.5,0.825; stroke-dashoffset: 0; stroke: #000000; stroke-opacity: 0.3; stroke-width: 0.5"/>
     </g>
     <g id="line2d_100">
      <g>
       <use xlink:href="#m253c34ce2e" x="265.525" y="308.611275" style="stroke: #000000; stroke-width: 0.8"/>
      </g>
     </g>
     <g id="text_42">
      <!-- 0 -->
      <g transform="translate(252.1625 312.410494) scale(0.1 -0.1)">
       <use xlink:href="#DejaVuSans-30"/>
      </g>
     </g>
    </g>
    <g id="ytick_25">
     <g id="line2d_101">
      <path d="M 265.525 285.090505 
L 457.2 285.090505 
" clip-path="url(#pc443c881f5)" style="fill: none; stroke-dasharray: 0.5,0.825; stroke-dashoffset: 0; stroke: #000000; stroke-opacity: 0.3; stroke-width: 0.5"/>
     </g>
     <g id="line2d_102">
      <g>
       <use xlink:href="#m253c34ce2e" x="265.525" y="285.090505" style="stroke: #000000; stroke-width: 0.8"/>
      </g>
     </g>
     <g id="text_43">
      <!-- 5 -->
      <g transform="translate(252.1625 288.889724) scale(0.1 -0.1)">
       <use xlink:href="#DejaVuSans-35"/>
      </g>
     </g>
    </g>
    <g id="ytick_26">
     <g id="line2d_103">
      <path d="M 265.525 261.569736 
L 457.2 261.569736 
" clip-path="url(#pc443c881f5)" style="fill: none; stroke-dasharray: 0.5,0.825; stroke-dashoffset: 0; stroke: #000000; stroke-opacity: 0.3; stroke-width: 0.5"/>
     </g>
     <g id="line2d_104">
      <g>
       <use xlink:href="#m253c34ce2e" x="265.525" y="261.569736" style="stroke: #000000; stroke-width: 0.8"/>
      </g>
     </g>
     <g id="text_44">
      <!-- 10 -->
      <g transform="translate(245.8 265.368954) scale(0.1 -0.1)">
       <use xlink:href="#DejaVuSans-31"/>
       <use xlink:href="#DejaVuSans-30" x="63.623047"/>
      </g>
     </g>
    </g>
   </g>
   <g id="line2d_105">
    <path d="M 274.2375 417.679909 
L 274.987219 416.385971 
L 276.216019 414.408563 
L 277.727842 412.13288 
L 279.458843 409.672959 
L 281.373524 407.089074 
L 283.448569 404.418606 
L 285.667218 401.686844 
L 288.016708 398.911876 
L 290.486917 396.107136 
L 293.069579 393.282891 
L 295.757786 390.44715 
L 298.545656 387.606269 
L 301.428111 384.765356 
L 304.400708 381.928558 
L 307.45952 379.099271 
L 310.601048 376.28029 
L 313.822146 373.473927 
L 317.119969 370.682104 
L 320.491928 367.906416 
L 323.935655 365.148191 
L 327.448974 362.408532 
L 331.029875 359.688351 
L 334.676497 356.988403 
L 338.387109 354.309304 
L 342.160098 351.651555 
L 345.993953 349.015555 
L 349.887258 346.401618 
L 353.838682 343.809984 
L 357.84697 341.240827 
L 361.910937 338.694265 
L 366.029461 336.170368 
L 370.201478 333.669163 
L 374.425981 331.190641 
L 378.702007 328.73476 
L 383.028642 326.301449 
L 387.405014 323.890615 
L 391.830288 321.502142 
L 396.303668 319.135898 
L 400.824388 316.791733 
L 405.391718 314.469484 
L 410.004954 312.168979 
L 414.663421 309.890034 
L 419.36647 307.632459 
L 424.113475 305.396057 
L 428.903835 303.180625 
L 433.736968 300.985961 
L 438.612315 298.811848 
L 443.529333 296.658108 
L 448.4875 294.52443 
" clip-path="url(#pc443c881f5)" style="fill: none; stroke: #1f77b4; stroke-opacity: 0.7; stroke-width: 2; stroke-linecap: square"/>
   </g>
   <g id="line2d_106">
    <path d="M 274.2375 367.563918 
L 274.987219 366.931257 
L 276.216019 365.90864 
L 277.727842 364.672167 
L 279.458843 363.282658 
L 281.373524 361.775171 
L 283.448569 360.173345 
L 285.667218 358.494453 
L 288.016708 356.751789 
L 290.486917 354.95593 
L 293.069579 353.115513 
L 295.757786 351.237716 
L 298.545656 349.328596 
L 301.428111 347.393321 
L 304.400708 345.436341 
L 307.45952 343.461517 
L 310.601048 341.472224 
L 313.822146 339.47142 
L 317.119969 337.461718 
L 320.491928 335.445426 
L 323.935655 333.424598 
L 327.448974 331.401059 
L 331.029875 329.376439 
L 334.676497 327.352195 
L 338.387109 325.32963 
L 342.160098 323.309914 
L 345.993953 321.294096 
L 349.887258 319.283118 
L 353.838682 317.277827 
L 357.84697 315.278983 
L 361.910937 313.28727 
L 366.029461 311.303303 
L 370.201478 309.327635 
L 374.425981 307.360763 
L 378.702007 305.403132 
L 383.028642 303.455144 
L 387.405014 301.517157 
L 391.830288 299.589496 
L 396.303668 297.672448 
L 400.824388 295.766275 
L 405.391718 293.87121 
L 410.004954 291.987461 
L 414.663421 290.115221 
L 419.36647 288.254654 
L 424.113475 286.405926 
L 428.903835 284.56916 
L 433.736968 282.744522 
L 438.612315 280.932073 
L 443.529333 279.132042 
L 448.4875 277.344343 
" clip-path="url(#pc443c881f5)" style="fill: none; stroke: #ff7f0e; stroke-opacity: 0.7; stroke-width: 2; stroke-linecap: square"/>
   </g>
   <g id="line2d_107">
    <path d="M 274.2375 312.79627 
L 274.987219 312.433988 
L 276.216019 311.843132 
L 277.727842 311.121048 
L 279.458843 310.300724 
L 281.373524 309.401142 
L 283.448569 308.435193 
L 285.667218 307.412425 
L 288.016708 306.340312 
L 290.486917 305.224928 
L 293.069579 304.071337 
L 295.757786 302.883846 
L 298.545656 301.666177 
L 301.428111 300.421588 
L 304.400708 299.152956 
L 307.45952 297.862841 
L 310.601048 296.553542 
L 313.822146 295.227129 
L 317.119969 293.885479 
L 320.491928 292.5303 
L 323.935655 291.163151 
L 327.448974 289.785461 
L 331.029875 288.398543 
L 334.676497 287.003607 
L 338.387109 285.601771 
L 342.160098 284.19407 
L 345.993953 282.781464 
L 349.887258 281.364849 
L 353.838682 279.945055 
L 357.84697 278.522863 
L 361.910937 277.099 
L 366.029461 275.674153 
L 370.201478 274.248965 
L 374.425981 272.824046 
L 378.702007 271.399973 
L 383.028642 269.977296 
L 387.405014 268.556539 
L 391.830288 267.138207 
L 396.303668 265.722786 
L 400.824388 264.310748 
L 405.391718 262.902555 
L 410.004954 261.498661 
L 414.663421 260.099518 
L 419.36647 258.705579 
L 424.113475 257.317303 
L 428.903835 255.935161 
L 433.736968 254.559638 
L 438.612315 253.191249 
L 443.529333 251.830534 
L 448.4875 250.478091 
" clip-path="url(#pc443c881f5)" style="fill: none; stroke: #2ca02c; stroke-opacity: 0.7; stroke-width: 2; stroke-linecap: square"/>
   </g>
   <g id="patch_19">
    <path d="M 265.525 426.04 
L 265.525 242.118 
" style="fill: none; stroke: #000000; stroke-width: 0.8; stroke-linejoin: miter; stroke-linecap: square"/>
   </g>
   <g id="patch_20">
    <path d="M 457.2 426.04 
L 457.2 242.118 
" style="fill: none; stroke: #000000; stroke-width: 0.8; stroke-linejoin: miter; stroke-linecap: square"/>
   </g>
   <g id="patch_21">
    <path d="M 265.525 426.04 
L 457.2 426.04 
" style="fill: none; stroke: #000000; stroke-width: 0.8; stroke-linejoin: miter; stroke-linecap: square"/>
   </g>
   <g id="patch_22">
    <path d="M 265.525 242.118 
L 457.2 242.118 
" style="fill: none; stroke: #000000; stroke-width: 0.8; stroke-linejoin: miter; stroke-linecap: square"/>
   </g>
   <g id="text_45">
    <!-- Value func. $V$ -->
    <g transform="translate(321.5225 236.118) scale(0.12 -0.12)">
     <defs>
      <path id="DejaVuSans-56" d="M 1831 0 
L 50 4666 
L 709 4666 
L 2188 738 
L 3669 4666 
L 4325 4666 
L 2547 0 
L 1831 0 
z
" transform="scale(0.015625)"/>
      <path id="DejaVuSans-66" d="M 2375 4863 
L 2375 4384 
L 1825 4384 
Q 1516 4384 1395 4259 
Q 1275 4134 1275 3809 
L 1275 3500 
L 2222 3500 
L 2222 3053 
L 1275 3053 
L 1275 0 
L 697 0 
L 697 3053 
L 147 3053 
L 147 3500 
L 697 3500 
L 697 3744 
Q 697 4328 969 4595 
Q 1241 4863 1831 4863 
L 2375 4863 
z
" transform="scale(0.015625)"/>
      <path id="DejaVuSans-63" d="M 3122 3366 
L 3122 2828 
Q 2878 2963 2633 3030 
Q 2388 3097 2138 3097 
Q 1578 3097 1268 2742 
Q 959 2388 959 1747 
Q 959 1106 1268 751 
Q 1578 397 2138 397 
Q 2388 397 2633 464 
Q 2878 531 3122 666 
L 3122 134 
Q 2881 22 2623 -34 
Q 2366 -91 2075 -91 
Q 1284 -91 818 406 
Q 353 903 353 1747 
Q 353 2603 823 3093 
Q 1294 3584 2113 3584 
Q 2378 3584 2631 3529 
Q 2884 3475 3122 3366 
z
" transform="scale(0.015625)"/>
      <path id="DejaVuSans-Oblique-56" d="M 1319 0 
L 500 4666 
L 1119 4666 
L 1797 653 
L 4063 4666 
L 4750 4666 
L 2053 0 
L 1319 0 
z
" transform="scale(0.015625)"/>
     </defs>
     <use xlink:href="#DejaVuSans-56" transform="translate(0 0.015625)"/>
     <use xlink:href="#DejaVuSans-61" transform="translate(68.408203 0.015625)"/>
     <use xlink:href="#DejaVuSans-6c" transform="translate(129.6875 0.015625)"/>
     <use xlink:href="#DejaVuSans-75" transform="translate(157.470703 0.015625)"/>
     <use xlink:href="#DejaVuSans-65" transform="translate(220.849609 0.015625)"/>
     <use xlink:href="#DejaVuSans-20" transform="translate(282.373047 0.015625)"/>
     <use xlink:href="#DejaVuSans-66" transform="translate(314.160156 0.015625)"/>
     <use xlink:href="#DejaVuSans-75" transform="translate(349.365234 0.015625)"/>
     <use xlink:href="#DejaVuSans-6e" transform="translate(412.744141 0.015625)"/>
     <use xlink:href="#DejaVuSans-63" transform="translate(476.123047 0.015625)"/>
     <use xlink:href="#DejaVuSans-2e" transform="translate(531.103516 0.015625)"/>
     <use xlink:href="#DejaVuSans-20" transform="translate(562.890625 0.015625)"/>
     <use xlink:href="#DejaVuSans-Oblique-56" transform="translate(594.677734 0.015625)"/>
    </g>
   </g>
  </g>
 </g>
 <defs>
  <clipPath id="pf2e41d71e4">
   <rect x="33.73" y="27.816" width="191.675" height="183.922"/>
  </clipPath>
  <clipPath id="pcb5a444d65">
   <rect x="265.525" y="27.816" width="191.675" height="183.922"/>
  </clipPath>
  <clipPath id="p9823b81a9e">
   <rect x="33.73" y="242.118" width="191.675" height="183.922"/>
  </clipPath>
  <clipPath id="pc443c881f5">
   <rect x="265.525" y="242.118" width="191.675" height="183.922"/>
  </clipPath>
 </defs>
</svg>
